  0
SECTION
  2
HEADER
  9
$ACADVER
  1
AC1009
  9
$FILLMODE
 70
 0
  9
$SPLFRAME
 70
 1
  9
$EXTMIN
 10
0
 20
0
 30
0.0
  9
$EXTMAX
 10
1058.33
 20
1058.33
 30
0.0
  0
ENDSEC
  0
SECTION
  2
TABLES
  0
TABLE
  2
LAYER
 70
1
  0
LAYER
  2
0
 70
     0
 62
     7
  6
CONTINUOUS
  0
ENDTAB
  0
ENDSEC
  0
SECTION
  2
ENTITIES
  0
LINE
  8
0
 62
     0
 10
0.0950846
 20
129.021
 30
0.0
 11
342.995
 21
129.021
 31
0.0
  0
LINE
  8
0
 62
     0
 10
342.995
 20
129.021
 30
0.0
 11
342.995
 21
0.434082
 31
0.0
  0
LINE
  8
0
 62
     0
 10
342.995
 20
0.434082
 30
0.0
 11
0.0950846
 21
0.434082
 31
0.0
  0
LINE
  8
0
 62
     0
 10
0.0950846
 20
0.434082
 30
0.0
 11
0.0950846
 21
129.021
 31
0.0
  0
LINE
  8
0
 62
     0
 10
121.682
 20
16.9595
 30
0.0
 11
121.682
 21
12.2604
 31
0.0
  0
LINE
  8
0
 62
     0
 10
121.682
 20
12.2604
 30
0.0
 11
79.6766
 21
12.2604
 31
0.0
  0
LINE
  8
0
 62
     0
 10
79.6766
 20
12.2604
 30
0.0
 11
79.6766
 21
15.4905
 31
0.0
  0
LINE
  8
0
 62
     0
 10
79.6766
 20
15.4905
 30
0.0
 11
72.9273
 21
15.4905
 31
0.0
  0
LINE
  8
0
 62
     0
 10
72.9273
 20
15.4905
 30
0.0
 11
72.9273
 21
12.2604
 31
0.0
  0
LINE
  8
0
 62
     0
 10
72.9273
 20
12.2604
 30
0.0
 11
72.1018
 21
12.2604
 31
0.0
  0
LINE
  8
0
 62
     0
 10
72.1018
 20
12.2604
 30
0.0
 11
72.1018
 21
9.46023
 31
0.0
  0
LINE
  8
0
 62
     0
 10
72.1018
 20
9.46023
 30
0.0
 11
72.9273
 21
9.46023
 31
0.0
  0
LINE
  8
0
 62
     0
 10
72.9273
 20
9.46023
 30
0.0
 11
72.9273
 21
3.19016
 31
0.0
  0
LINE
  8
0
 62
     0
 10
72.9273
 20
3.19016
 30
0.0
 11
74.651
 21
3.19016
 31
0.0
  0
LINE
  8
0
 62
     0
 10
74.651
 20
3.19016
 30
0.0
 11
74.651
 21
1.98989
 31
0.0
  0
LINE
  8
0
 62
     0
 10
74.651
 20
1.98989
 30
0.0
 11
77.9515
 21
1.98989
 31
0.0
  0
LINE
  8
0
 62
     0
 10
77.9515
 20
1.98989
 30
0.0
 11
77.9515
 21
3.19016
 31
0.0
  0
LINE
  8
0
 62
     0
 10
77.9515
 20
3.19016
 30
0.0
 11
79.6766
 21
3.19016
 31
0.0
  0
LINE
  8
0
 62
     0
 10
79.6766
 20
3.19016
 30
0.0
 11
79.6766
 21
7.6605
 31
0.0
  0
LINE
  8
0
 62
     0
 10
79.6766
 20
7.6605
 30
0.0
 11
121.682
 21
7.6605
 31
0.0
  0
LINE
  8
0
 62
     0
 10
121.682
 20
7.6605
 30
0.0
 11
121.682
 21
2.96003
 31
0.0
  0
LINE
  8
0
 62
     0
 10
121.682
 20
2.96003
 30
0.0
 11
135.682
 21
2.96003
 31
0.0
  0
LINE
  8
0
 62
     0
 10
135.682
 20
2.96003
 30
0.0
 11
135.682
 21
7.6605
 31
0.0
  0
LINE
  8
0
 62
     0
 10
135.682
 20
7.6605
 30
0.0
 11
177.687
 21
7.6605
 31
0.0
  0
LINE
  8
0
 62
     0
 10
177.687
 20
7.6605
 30
0.0
 11
177.687
 21
3.19016
 31
0.0
  0
LINE
  8
0
 62
     0
 10
177.687
 20
3.19016
 30
0.0
 11
179.411
 21
3.19016
 31
0.0
  0
LINE
  8
0
 62
     0
 10
179.411
 20
3.19016
 30
0.0
 11
179.411
 21
1.98989
 31
0.0
  0
LINE
  8
0
 62
     0
 10
179.411
 20
1.98989
 30
0.0
 11
182.711
 21
1.98989
 31
0.0
  0
LINE
  8
0
 62
     0
 10
182.711
 20
1.98989
 30
0.0
 11
182.711
 21
3.19016
 31
0.0
  0
LINE
  8
0
 62
     0
 10
182.711
 20
3.19016
 30
0.0
 11
184.437
 21
3.19016
 31
0.0
  0
LINE
  8
0
 62
     0
 10
184.437
 20
3.19016
 30
0.0
 11
184.437
 21
9.46023
 31
0.0
  0
LINE
  8
0
 62
     0
 10
184.437
 20
9.46023
 30
0.0
 11
185.262
 21
9.46023
 31
0.0
  0
LINE
  8
0
 62
     0
 10
185.262
 20
9.46023
 30
0.0
 11
185.262
 21
12.2604
 31
0.0
  0
LINE
  8
0
 62
     0
 10
185.262
 20
12.2604
 30
0.0
 11
184.437
 21
12.2604
 31
0.0
  0
LINE
  8
0
 62
     0
 10
184.437
 20
12.2604
 30
0.0
 11
184.437
 21
15.4905
 31
0.0
  0
LINE
  8
0
 62
     0
 10
184.437
 20
15.4905
 30
0.0
 11
177.687
 21
15.4905
 31
0.0
  0
LINE
  8
0
 62
     0
 10
177.687
 20
15.4905
 30
0.0
 11
177.687
 21
12.2604
 31
0.0
  0
LINE
  8
0
 62
     0
 10
177.687
 20
12.2604
 30
0.0
 11
135.682
 21
12.2604
 31
0.0
  0
LINE
  8
0
 62
     0
 10
135.682
 20
12.2604
 30
0.0
 11
135.682
 21
16.9595
 31
0.0
  0
LINE
  8
0
 62
     0
 10
135.682
 20
16.9595
 30
0.0
 11
121.682
 21
16.9595
 31
0.0
  0
LINE
  8
0
 62
     0
 10
7.38216
 20
16.9595
 30
0.0
 11
21.3817
 21
16.9595
 31
0.0
  0
LINE
  8
0
 62
     0
 10
21.3817
 20
16.9595
 30
0.0
 11
21.3817
 21
2.96003
 31
0.0
  0
LINE
  8
0
 62
     0
 10
21.3817
 20
2.96003
 30
0.0
 11
7.38216
 21
2.96003
 31
0.0
  0
LINE
  8
0
 62
     0
 10
7.38216
 20
2.96003
 30
0.0
 11
7.38216
 21
16.9595
 31
0.0
  0
LINE
  8
0
 62
     0
 10
35.9572
 20
16.9595
 30
0.0
 11
49.9565
 21
16.9595
 31
0.0
  0
LINE
  8
0
 62
     0
 10
49.9565
 20
16.9595
 30
0.0
 11
49.9565
 21
2.96003
 31
0.0
  0
LINE
  8
0
 62
     0
 10
49.9565
 20
2.96003
 30
0.0
 11
35.9572
 21
2.96003
 31
0.0
  0
LINE
  8
0
 62
     0
 10
35.9572
 20
2.96003
 30
0.0
 11
35.9572
 21
16.9595
 31
0.0
  0
LINE
  8
0
 62
     0
 10
207.407
 20
16.9595
 30
0.0
 11
221.407
 21
16.9595
 31
0.0
  0
LINE
  8
0
 62
     0
 10
221.407
 20
16.9595
 30
0.0
 11
221.407
 21
2.96003
 31
0.0
  0
LINE
  8
0
 62
     0
 10
221.407
 20
2.96003
 30
0.0
 11
207.407
 21
2.96003
 31
0.0
  0
LINE
  8
0
 62
     0
 10
207.407
 20
2.96003
 30
0.0
 11
207.407
 21
16.9595
 31
0.0
  0
LINE
  8
0
 62
     0
 10
235.982
 20
16.9595
 30
0.0
 11
249.982
 21
16.9595
 31
0.0
  0
LINE
  8
0
 62
     0
 10
249.982
 20
16.9595
 30
0.0
 11
249.982
 21
2.96003
 31
0.0
  0
LINE
  8
0
 62
     0
 10
249.982
 20
2.96003
 30
0.0
 11
235.982
 21
2.96003
 31
0.0
  0
LINE
  8
0
 62
     0
 10
235.982
 20
2.96003
 30
0.0
 11
235.982
 21
16.9595
 31
0.0
  0
LINE
  8
0
 62
     0
 10
288.37
 20
16.9595
 30
0.0
 11
302.369
 21
16.9595
 31
0.0
  0
LINE
  8
0
 62
     0
 10
302.369
 20
16.9595
 30
0.0
 11
302.369
 21
2.96003
 31
0.0
  0
LINE
  8
0
 62
     0
 10
302.369
 20
2.96003
 30
0.0
 11
288.37
 21
2.96003
 31
0.0
  0
LINE
  8
0
 62
     0
 10
288.37
 20
2.96003
 30
0.0
 11
288.37
 21
16.9595
 31
0.0
  0
LINE
  8
0
 62
     0
 10
307.42
 20
16.9595
 30
0.0
 11
321.419
 21
16.9595
 31
0.0
  0
LINE
  8
0
 62
     0
 10
321.419
 20
16.9595
 30
0.0
 11
321.419
 21
2.96003
 31
0.0
  0
LINE
  8
0
 62
     0
 10
321.419
 20
2.96003
 30
0.0
 11
307.42
 21
2.96003
 31
0.0
  0
LINE
  8
0
 62
     0
 10
307.42
 20
2.96003
 30
0.0
 11
307.42
 21
16.9595
 31
0.0
  0
LINE
  8
0
 62
     0
 10
326.47
 20
16.9595
 30
0.0
 11
340.469
 21
16.9595
 31
0.0
  0
LINE
  8
0
 62
     0
 10
340.469
 20
16.9595
 30
0.0
 11
340.469
 21
2.96003
 31
0.0
  0
LINE
  8
0
 62
     0
 10
340.469
 20
2.96003
 30
0.0
 11
326.47
 21
2.96003
 31
0.0
  0
LINE
  8
0
 62
     0
 10
326.47
 20
2.96003
 30
0.0
 11
326.47
 21
16.9595
 31
0.0
  0
LINE
  8
0
 62
     0
 10
307.42
 20
36.0094
 30
0.0
 11
321.419
 21
36.0094
 31
0.0
  0
LINE
  8
0
 62
     0
 10
321.419
 20
36.0094
 30
0.0
 11
321.419
 21
22.01
 31
0.0
  0
LINE
  8
0
 62
     0
 10
321.419
 20
22.01
 30
0.0
 11
307.42
 21
22.01
 31
0.0
  0
LINE
  8
0
 62
     0
 10
307.42
 20
22.01
 30
0.0
 11
307.42
 21
36.0094
 31
0.0
  0
LINE
  8
0
 62
     0
 10
7.38216
 20
40.7719
 30
0.0
 11
21.3817
 21
40.7719
 31
0.0
  0
LINE
  8
0
 62
     0
 10
21.3817
 20
40.7719
 30
0.0
 11
21.3817
 21
26.7725
 31
0.0
  0
LINE
  8
0
 62
     0
 10
21.3817
 20
26.7725
 30
0.0
 11
7.38216
 21
26.7725
 31
0.0
  0
LINE
  8
0
 62
     0
 10
7.38216
 20
26.7725
 30
0.0
 11
7.38216
 21
40.7719
 31
0.0
  0
LINE
  8
0
 62
     0
 10
50.2447
 20
40.7719
 30
0.0
 11
64.244
 21
40.7719
 31
0.0
  0
LINE
  8
0
 62
     0
 10
64.244
 20
40.7719
 30
0.0
 11
64.244
 21
26.7725
 31
0.0
  0
LINE
  8
0
 62
     0
 10
64.244
 20
26.7725
 30
0.0
 11
50.2447
 21
26.7725
 31
0.0
  0
LINE
  8
0
 62
     0
 10
50.2447
 20
26.7725
 30
0.0
 11
50.2447
 21
40.7719
 31
0.0
  0
LINE
  8
0
 62
     0
 10
69.2947
 20
40.7719
 30
0.0
 11
83.294
 21
40.7719
 31
0.0
  0
LINE
  8
0
 62
     0
 10
83.294
 20
40.7719
 30
0.0
 11
83.294
 21
26.7725
 31
0.0
  0
LINE
  8
0
 62
     0
 10
83.294
 20
26.7725
 30
0.0
 11
69.2947
 21
26.7725
 31
0.0
  0
LINE
  8
0
 62
     0
 10
69.2947
 20
26.7725
 30
0.0
 11
69.2947
 21
40.7719
 31
0.0
  0
LINE
  8
0
 62
     0
 10
102.632
 20
40.7719
 30
0.0
 11
116.632
 21
40.7719
 31
0.0
  0
LINE
  8
0
 62
     0
 10
116.632
 20
40.7719
 30
0.0
 11
116.632
 21
26.7725
 31
0.0
  0
LINE
  8
0
 62
     0
 10
116.632
 20
26.7725
 30
0.0
 11
102.632
 21
26.7725
 31
0.0
  0
LINE
  8
0
 62
     0
 10
102.632
 20
26.7725
 30
0.0
 11
102.632
 21
40.7719
 31
0.0
  0
LINE
  8
0
 62
     0
 10
121.682
 20
40.7719
 30
0.0
 11
135.682
 21
40.7719
 31
0.0
  0
LINE
  8
0
 62
     0
 10
135.682
 20
40.7719
 30
0.0
 11
135.682
 21
26.7725
 31
0.0
  0
LINE
  8
0
 62
     0
 10
135.682
 20
26.7725
 30
0.0
 11
121.682
 21
26.7725
 31
0.0
  0
LINE
  8
0
 62
     0
 10
121.682
 20
26.7725
 30
0.0
 11
121.682
 21
40.7719
 31
0.0
  0
LINE
  8
0
 62
     0
 10
155.02
 20
40.7719
 30
0.0
 11
169.019
 21
40.7719
 31
0.0
  0
LINE
  8
0
 62
     0
 10
169.019
 20
40.7719
 30
0.0
 11
169.019
 21
26.7725
 31
0.0
  0
LINE
  8
0
 62
     0
 10
169.019
 20
26.7725
 30
0.0
 11
155.02
 21
26.7725
 31
0.0
  0
LINE
  8
0
 62
     0
 10
155.02
 20
26.7725
 30
0.0
 11
155.02
 21
40.7719
 31
0.0
  0
LINE
  8
0
 62
     0
 10
174.07
 20
40.7719
 30
0.0
 11
188.069
 21
40.7719
 31
0.0
  0
LINE
  8
0
 62
     0
 10
188.069
 20
40.7719
 30
0.0
 11
188.069
 21
26.7725
 31
0.0
  0
LINE
  8
0
 62
     0
 10
188.069
 20
26.7725
 30
0.0
 11
174.07
 21
26.7725
 31
0.0
  0
LINE
  8
0
 62
     0
 10
174.07
 20
26.7725
 30
0.0
 11
174.07
 21
40.7719
 31
0.0
  0
LINE
  8
0
 62
     0
 10
207.407
 20
40.7719
 30
0.0
 11
221.407
 21
40.7719
 31
0.0
  0
LINE
  8
0
 62
     0
 10
221.407
 20
40.7719
 30
0.0
 11
221.407
 21
26.7725
 31
0.0
  0
LINE
  8
0
 62
     0
 10
221.407
 20
26.7725
 30
0.0
 11
207.407
 21
26.7725
 31
0.0
  0
LINE
  8
0
 62
     0
 10
207.407
 20
26.7725
 30
0.0
 11
207.407
 21
40.7719
 31
0.0
  0
LINE
  8
0
 62
     0
 10
226.457
 20
40.7719
 30
0.0
 11
240.457
 21
40.7719
 31
0.0
  0
LINE
  8
0
 62
     0
 10
240.457
 20
40.7719
 30
0.0
 11
240.457
 21
26.7725
 31
0.0
  0
LINE
  8
0
 62
     0
 10
240.457
 20
26.7725
 30
0.0
 11
226.457
 21
26.7725
 31
0.0
  0
LINE
  8
0
 62
     0
 10
226.457
 20
26.7725
 30
0.0
 11
226.457
 21
40.7719
 31
0.0
  0
LINE
  8
0
 62
     0
 10
259.795
 20
40.7719
 30
0.0
 11
273.794
 21
40.7719
 31
0.0
  0
LINE
  8
0
 62
     0
 10
273.794
 20
40.7719
 30
0.0
 11
273.794
 21
26.7725
 31
0.0
  0
LINE
  8
0
 62
     0
 10
273.794
 20
26.7725
 30
0.0
 11
259.795
 21
26.7725
 31
0.0
  0
LINE
  8
0
 62
     0
 10
259.795
 20
26.7725
 30
0.0
 11
259.795
 21
40.7719
 31
0.0
  0
LINE
  8
0
 62
     0
 10
278.845
 20
40.7719
 30
0.0
 11
292.844
 21
40.7719
 31
0.0
  0
LINE
  8
0
 62
     0
 10
292.844
 20
40.7719
 30
0.0
 11
292.844
 21
26.7725
 31
0.0
  0
LINE
  8
0
 62
     0
 10
292.844
 20
26.7725
 30
0.0
 11
278.845
 21
26.7725
 31
0.0
  0
LINE
  8
0
 62
     0
 10
278.845
 20
26.7725
 30
0.0
 11
278.845
 21
40.7719
 31
0.0
  0
LINE
  8
0
 62
     0
 10
12.1447
 20
59.8219
 30
0.0
 11
12.1447
 21
55.1215
 31
0.0
  0
LINE
  8
0
 62
     0
 10
12.1447
 20
55.1215
 30
0.0
 11
10.6192
 21
55.1215
 31
0.0
  0
LINE
  8
0
 62
     0
 10
10.6192
 20
55.1215
 30
0.0
 11
10.6192
 21
58.3516
 31
0.0
  0
LINE
  8
0
 62
     0
 10
10.6192
 20
58.3516
 30
0.0
 11
3.86955
 21
58.3516
 31
0.0
  0
LINE
  8
0
 62
     0
 10
3.86955
 20
58.3516
 30
0.0
 11
3.86955
 21
55.1215
 31
0.0
  0
LINE
  8
0
 62
     0
 10
3.86955
 20
55.1215
 30
0.0
 11
3.04409
 21
55.1215
 31
0.0
  0
LINE
  8
0
 62
     0
 10
3.04409
 20
55.1215
 30
0.0
 11
3.04409
 21
52.3226
 31
0.0
  0
LINE
  8
0
 62
     0
 10
3.04409
 20
52.3226
 30
0.0
 11
3.86955
 21
52.3226
 31
0.0
  0
LINE
  8
0
 62
     0
 10
3.86955
 20
52.3226
 30
0.0
 11
3.86955
 21
46.0527
 31
0.0
  0
LINE
  8
0
 62
     0
 10
3.86955
 20
46.0527
 30
0.0
 11
5.59484
 21
46.0527
 31
0.0
  0
LINE
  8
0
 62
     0
 10
5.59484
 20
46.0527
 30
0.0
 11
5.59484
 21
44.8525
 31
0.0
  0
LINE
  8
0
 62
     0
 10
5.59484
 20
44.8525
 30
0.0
 11
8.89385
 21
44.8525
 31
0.0
  0
LINE
  8
0
 62
     0
 10
8.89385
 20
44.8525
 30
0.0
 11
8.89385
 21
46.0527
 31
0.0
  0
LINE
  8
0
 62
     0
 10
8.89385
 20
46.0527
 30
0.0
 11
10.6192
 21
46.0527
 31
0.0
  0
LINE
  8
0
 62
     0
 10
10.6192
 20
46.0527
 30
0.0
 11
10.6192
 21
50.5217
 31
0.0
  0
LINE
  8
0
 62
     0
 10
10.6192
 20
50.5217
 30
0.0
 11
12.1447
 21
50.5217
 31
0.0
  0
LINE
  8
0
 62
     0
 10
12.1447
 20
50.5217
 30
0.0
 11
12.1447
 21
45.8227
 31
0.0
  0
LINE
  8
0
 62
     0
 10
12.1447
 20
45.8227
 30
0.0
 11
26.1441
 21
45.8227
 31
0.0
  0
LINE
  8
0
 62
     0
 10
26.1441
 20
45.8227
 30
0.0
 11
26.1441
 21
50.5217
 31
0.0
  0
LINE
  8
0
 62
     0
 10
26.1441
 20
50.5217
 30
0.0
 11
27.6696
 21
50.5217
 31
0.0
  0
LINE
  8
0
 62
     0
 10
27.6696
 20
50.5217
 30
0.0
 11
27.6696
 21
46.0527
 31
0.0
  0
LINE
  8
0
 62
     0
 10
27.6696
 20
46.0527
 30
0.0
 11
29.3949
 21
46.0527
 31
0.0
  0
LINE
  8
0
 62
     0
 10
29.3949
 20
46.0527
 30
0.0
 11
29.3949
 21
44.8525
 31
0.0
  0
LINE
  8
0
 62
     0
 10
29.3949
 20
44.8525
 30
0.0
 11
32.694
 21
44.8525
 31
0.0
  0
LINE
  8
0
 62
     0
 10
32.694
 20
44.8525
 30
0.0
 11
32.694
 21
46.0527
 31
0.0
  0
LINE
  8
0
 62
     0
 10
32.694
 20
46.0527
 30
0.0
 11
34.4193
 21
46.0527
 31
0.0
  0
LINE
  8
0
 62
     0
 10
34.4193
 20
46.0527
 30
0.0
 11
34.4193
 21
52.3226
 31
0.0
  0
LINE
  8
0
 62
     0
 10
34.4193
 20
52.3226
 30
0.0
 11
35.2447
 21
52.3226
 31
0.0
  0
LINE
  8
0
 62
     0
 10
35.2447
 20
52.3226
 30
0.0
 11
35.2447
 21
55.1215
 31
0.0
  0
LINE
  8
0
 62
     0
 10
35.2447
 20
55.1215
 30
0.0
 11
34.4193
 21
55.1215
 31
0.0
  0
LINE
  8
0
 62
     0
 10
34.4193
 20
55.1215
 30
0.0
 11
34.4193
 21
58.3516
 31
0.0
  0
LINE
  8
0
 62
     0
 10
34.4193
 20
58.3516
 30
0.0
 11
27.6696
 21
58.3516
 31
0.0
  0
LINE
  8
0
 62
     0
 10
27.6696
 20
58.3516
 30
0.0
 11
27.6696
 21
55.1215
 31
0.0
  0
LINE
  8
0
 62
     0
 10
27.6696
 20
55.1215
 30
0.0
 11
26.1441
 21
55.1215
 31
0.0
  0
LINE
  8
0
 62
     0
 10
26.1441
 20
55.1215
 30
0.0
 11
26.1441
 21
59.8219
 31
0.0
  0
LINE
  8
0
 62
     0
 10
26.1441
 20
59.8219
 30
0.0
 11
12.1447
 21
59.8219
 31
0.0
  0
LINE
  8
0
 62
     0
 10
316.945
 20
59.8219
 30
0.0
 11
316.945
 21
55.1215
 31
0.0
  0
LINE
  8
0
 62
     0
 10
316.945
 20
55.1215
 30
0.0
 11
315.419
 21
55.1215
 31
0.0
  0
LINE
  8
0
 62
     0
 10
315.419
 20
55.1215
 30
0.0
 11
315.419
 21
58.3516
 31
0.0
  0
LINE
  8
0
 62
     0
 10
315.419
 20
58.3516
 30
0.0
 11
308.67
 21
58.3516
 31
0.0
  0
LINE
  8
0
 62
     0
 10
308.67
 20
58.3516
 30
0.0
 11
308.67
 21
55.1215
 31
0.0
  0
LINE
  8
0
 62
     0
 10
308.67
 20
55.1215
 30
0.0
 11
307.844
 21
55.1215
 31
0.0
  0
LINE
  8
0
 62
     0
 10
307.844
 20
55.1215
 30
0.0
 11
307.844
 21
52.3226
 31
0.0
  0
LINE
  8
0
 62
     0
 10
307.844
 20
52.3226
 30
0.0
 11
308.67
 21
52.3226
 31
0.0
  0
LINE
  8
0
 62
     0
 10
308.67
 20
52.3226
 30
0.0
 11
308.67
 21
46.0527
 31
0.0
  0
LINE
  8
0
 62
     0
 10
308.67
 20
46.0527
 30
0.0
 11
310.395
 21
46.0527
 31
0.0
  0
LINE
  8
0
 62
     0
 10
310.395
 20
46.0527
 30
0.0
 11
310.395
 21
44.8525
 31
0.0
  0
LINE
  8
0
 62
     0
 10
310.395
 20
44.8525
 30
0.0
 11
313.694
 21
44.8525
 31
0.0
  0
LINE
  8
0
 62
     0
 10
313.694
 20
44.8525
 30
0.0
 11
313.694
 21
46.0527
 31
0.0
  0
LINE
  8
0
 62
     0
 10
313.694
 20
46.0527
 30
0.0
 11
315.419
 21
46.0527
 31
0.0
  0
LINE
  8
0
 62
     0
 10
315.419
 20
46.0527
 30
0.0
 11
315.419
 21
50.5217
 31
0.0
  0
LINE
  8
0
 62
     0
 10
315.419
 20
50.5217
 30
0.0
 11
316.945
 21
50.5217
 31
0.0
  0
LINE
  8
0
 62
     0
 10
316.945
 20
50.5217
 30
0.0
 11
316.945
 21
45.8227
 31
0.0
  0
LINE
  8
0
 62
     0
 10
316.945
 20
45.8227
 30
0.0
 11
330.944
 21
45.8227
 31
0.0
  0
LINE
  8
0
 62
     0
 10
330.944
 20
45.8227
 30
0.0
 11
330.944
 21
50.5217
 31
0.0
  0
LINE
  8
0
 62
     0
 10
330.944
 20
50.5217
 30
0.0
 11
332.47
 21
50.5217
 31
0.0
  0
LINE
  8
0
 62
     0
 10
332.47
 20
50.5217
 30
0.0
 11
332.47
 21
46.0527
 31
0.0
  0
LINE
  8
0
 62
     0
 10
332.47
 20
46.0527
 30
0.0
 11
334.195
 21
46.0527
 31
0.0
  0
LINE
  8
0
 62
     0
 10
334.195
 20
46.0527
 30
0.0
 11
334.195
 21
44.8525
 31
0.0
  0
LINE
  8
0
 62
     0
 10
334.195
 20
44.8525
 30
0.0
 11
337.494
 21
44.8525
 31
0.0
  0
LINE
  8
0
 62
     0
 10
337.494
 20
44.8525
 30
0.0
 11
337.494
 21
46.0527
 31
0.0
  0
LINE
  8
0
 62
     0
 10
337.494
 20
46.0527
 30
0.0
 11
339.219
 21
46.0527
 31
0.0
  0
LINE
  8
0
 62
     0
 10
339.219
 20
46.0527
 30
0.0
 11
339.219
 21
52.3226
 31
0.0
  0
LINE
  8
0
 62
     0
 10
339.219
 20
52.3226
 30
0.0
 11
340.045
 21
52.3226
 31
0.0
  0
LINE
  8
0
 62
     0
 10
340.045
 20
52.3226
 30
0.0
 11
340.045
 21
55.1215
 31
0.0
  0
LINE
  8
0
 62
     0
 10
340.045
 20
55.1215
 30
0.0
 11
339.219
 21
55.1215
 31
0.0
  0
LINE
  8
0
 62
     0
 10
339.219
 20
55.1215
 30
0.0
 11
339.219
 21
58.3516
 31
0.0
  0
LINE
  8
0
 62
     0
 10
339.219
 20
58.3516
 30
0.0
 11
332.47
 21
58.3516
 31
0.0
  0
LINE
  8
0
 62
     0
 10
332.47
 20
58.3516
 30
0.0
 11
332.47
 21
55.1215
 31
0.0
  0
LINE
  8
0
 62
     0
 10
332.47
 20
55.1215
 30
0.0
 11
330.944
 21
55.1215
 31
0.0
  0
LINE
  8
0
 62
     0
 10
330.944
 20
55.1215
 30
0.0
 11
330.944
 21
59.8219
 31
0.0
  0
LINE
  8
0
 62
     0
 10
330.944
 20
59.8219
 30
0.0
 11
316.945
 21
59.8219
 31
0.0
  0
LINE
  8
0
 62
     0
 10
50.2447
 20
59.8219
 30
0.0
 11
64.244
 21
59.8219
 31
0.0
  0
LINE
  8
0
 62
     0
 10
64.244
 20
59.8219
 30
0.0
 11
64.244
 21
45.8227
 31
0.0
  0
LINE
  8
0
 62
     0
 10
64.244
 20
45.8227
 30
0.0
 11
50.2447
 21
45.8227
 31
0.0
  0
LINE
  8
0
 62
     0
 10
50.2447
 20
45.8227
 30
0.0
 11
50.2447
 21
59.8219
 31
0.0
  0
LINE
  8
0
 62
     0
 10
69.2947
 20
59.8219
 30
0.0
 11
83.294
 21
59.8219
 31
0.0
  0
LINE
  8
0
 62
     0
 10
83.294
 20
59.8219
 30
0.0
 11
83.294
 21
45.8227
 31
0.0
  0
LINE
  8
0
 62
     0
 10
83.294
 20
45.8227
 30
0.0
 11
69.2947
 21
45.8227
 31
0.0
  0
LINE
  8
0
 62
     0
 10
69.2947
 20
45.8227
 30
0.0
 11
69.2947
 21
59.8219
 31
0.0
  0
LINE
  8
0
 62
     0
 10
102.632
 20
59.8219
 30
0.0
 11
116.632
 21
59.8219
 31
0.0
  0
LINE
  8
0
 62
     0
 10
116.632
 20
59.8219
 30
0.0
 11
116.632
 21
45.8227
 31
0.0
  0
LINE
  8
0
 62
     0
 10
116.632
 20
45.8227
 30
0.0
 11
102.632
 21
45.8227
 31
0.0
  0
LINE
  8
0
 62
     0
 10
102.632
 20
45.8227
 30
0.0
 11
102.632
 21
59.8219
 31
0.0
  0
LINE
  8
0
 62
     0
 10
121.682
 20
59.8219
 30
0.0
 11
135.682
 21
59.8219
 31
0.0
  0
LINE
  8
0
 62
     0
 10
135.682
 20
59.8219
 30
0.0
 11
135.682
 21
45.8227
 31
0.0
  0
LINE
  8
0
 62
     0
 10
135.682
 20
45.8227
 30
0.0
 11
121.682
 21
45.8227
 31
0.0
  0
LINE
  8
0
 62
     0
 10
121.682
 20
45.8227
 30
0.0
 11
121.682
 21
59.8219
 31
0.0
  0
LINE
  8
0
 62
     0
 10
155.02
 20
59.8219
 30
0.0
 11
169.019
 21
59.8219
 31
0.0
  0
LINE
  8
0
 62
     0
 10
169.019
 20
59.8219
 30
0.0
 11
169.019
 21
45.8227
 31
0.0
  0
LINE
  8
0
 62
     0
 10
169.019
 20
45.8227
 30
0.0
 11
155.02
 21
45.8227
 31
0.0
  0
LINE
  8
0
 62
     0
 10
155.02
 20
45.8227
 30
0.0
 11
155.02
 21
59.8219
 31
0.0
  0
LINE
  8
0
 62
     0
 10
174.07
 20
59.8219
 30
0.0
 11
188.069
 21
59.8219
 31
0.0
  0
LINE
  8
0
 62
     0
 10
188.069
 20
59.8219
 30
0.0
 11
188.069
 21
45.8227
 31
0.0
  0
LINE
  8
0
 62
     0
 10
188.069
 20
45.8227
 30
0.0
 11
174.07
 21
45.8227
 31
0.0
  0
LINE
  8
0
 62
     0
 10
174.07
 20
45.8227
 30
0.0
 11
174.07
 21
59.8219
 31
0.0
  0
LINE
  8
0
 62
     0
 10
207.407
 20
59.8219
 30
0.0
 11
221.407
 21
59.8219
 31
0.0
  0
LINE
  8
0
 62
     0
 10
221.407
 20
59.8219
 30
0.0
 11
221.407
 21
45.8227
 31
0.0
  0
LINE
  8
0
 62
     0
 10
221.407
 20
45.8227
 30
0.0
 11
207.407
 21
45.8227
 31
0.0
  0
LINE
  8
0
 62
     0
 10
207.407
 20
45.8227
 30
0.0
 11
207.407
 21
59.8219
 31
0.0
  0
LINE
  8
0
 62
     0
 10
226.457
 20
59.8219
 30
0.0
 11
240.457
 21
59.8219
 31
0.0
  0
LINE
  8
0
 62
     0
 10
240.457
 20
59.8219
 30
0.0
 11
240.457
 21
45.8227
 31
0.0
  0
LINE
  8
0
 62
     0
 10
240.457
 20
45.8227
 30
0.0
 11
226.457
 21
45.8227
 31
0.0
  0
LINE
  8
0
 62
     0
 10
226.457
 20
45.8227
 30
0.0
 11
226.457
 21
59.8219
 31
0.0
  0
LINE
  8
0
 62
     0
 10
259.795
 20
59.8219
 30
0.0
 11
273.794
 21
59.8219
 31
0.0
  0
LINE
  8
0
 62
     0
 10
273.794
 20
59.8219
 30
0.0
 11
273.794
 21
45.8227
 31
0.0
  0
LINE
  8
0
 62
     0
 10
273.794
 20
45.8227
 30
0.0
 11
259.795
 21
45.8227
 31
0.0
  0
LINE
  8
0
 62
     0
 10
259.795
 20
45.8227
 30
0.0
 11
259.795
 21
59.8219
 31
0.0
  0
LINE
  8
0
 62
     0
 10
278.845
 20
59.8219
 30
0.0
 11
292.844
 21
59.8219
 31
0.0
  0
LINE
  8
0
 62
     0
 10
292.844
 20
59.8219
 30
0.0
 11
292.844
 21
45.8227
 31
0.0
  0
LINE
  8
0
 62
     0
 10
292.844
 20
45.8227
 30
0.0
 11
278.845
 21
45.8227
 31
0.0
  0
LINE
  8
0
 62
     0
 10
278.845
 20
45.8227
 30
0.0
 11
278.845
 21
59.8219
 31
0.0
  0
LINE
  8
0
 62
     0
 10
12.1447
 20
83.6344
 30
0.0
 11
12.1447
 21
78.9354
 31
0.0
  0
LINE
  8
0
 62
     0
 10
12.1447
 20
78.9354
 30
0.0
 11
10.6192
 21
78.9354
 31
0.0
  0
LINE
  8
0
 62
     0
 10
10.6192
 20
78.9354
 30
0.0
 11
10.6192
 21
82.1655
 31
0.0
  0
LINE
  8
0
 62
     0
 10
10.6192
 20
82.1655
 30
0.0
 11
3.86955
 21
82.1655
 31
0.0
  0
LINE
  8
0
 62
     0
 10
3.86955
 20
82.1655
 30
0.0
 11
3.86955
 21
78.9354
 31
0.0
  0
LINE
  8
0
 62
     0
 10
3.86955
 20
78.9354
 30
0.0
 11
3.04409
 21
78.9354
 31
0.0
  0
LINE
  8
0
 62
     0
 10
3.04409
 20
78.9354
 30
0.0
 11
3.04409
 21
76.1351
 31
0.0
  0
LINE
  8
0
 62
     0
 10
3.04409
 20
76.1351
 30
0.0
 11
3.86955
 21
76.1351
 31
0.0
  0
LINE
  8
0
 62
     0
 10
3.86955
 20
76.1351
 30
0.0
 11
3.86955
 21
69.8652
 31
0.0
  0
LINE
  8
0
 62
     0
 10
3.86955
 20
69.8652
 30
0.0
 11
5.59484
 21
69.8652
 31
0.0
  0
LINE
  8
0
 62
     0
 10
5.59484
 20
69.8652
 30
0.0
 11
5.59484
 21
68.665
 31
0.0
  0
LINE
  8
0
 62
     0
 10
5.59484
 20
68.665
 30
0.0
 11
8.89385
 21
68.665
 31
0.0
  0
LINE
  8
0
 62
     0
 10
8.89385
 20
68.665
 30
0.0
 11
8.89385
 21
69.8652
 31
0.0
  0
LINE
  8
0
 62
     0
 10
8.89385
 20
69.8652
 30
0.0
 11
10.6192
 21
69.8652
 31
0.0
  0
LINE
  8
0
 62
     0
 10
10.6192
 20
69.8652
 30
0.0
 11
10.6192
 21
74.3356
 31
0.0
  0
LINE
  8
0
 62
     0
 10
10.6192
 20
74.3356
 30
0.0
 11
12.1447
 21
74.3356
 31
0.0
  0
LINE
  8
0
 62
     0
 10
12.1447
 20
74.3356
 30
0.0
 11
12.1447
 21
69.6352
 31
0.0
  0
LINE
  8
0
 62
     0
 10
12.1447
 20
69.6352
 30
0.0
 11
26.1441
 21
69.6352
 31
0.0
  0
LINE
  8
0
 62
     0
 10
26.1441
 20
69.6352
 30
0.0
 11
26.1441
 21
74.3356
 31
0.0
  0
LINE
  8
0
 62
     0
 10
26.1441
 20
74.3356
 30
0.0
 11
27.6696
 21
74.3356
 31
0.0
  0
LINE
  8
0
 62
     0
 10
27.6696
 20
74.3356
 30
0.0
 11
27.6696
 21
69.8652
 31
0.0
  0
LINE
  8
0
 62
     0
 10
27.6696
 20
69.8652
 30
0.0
 11
29.3949
 21
69.8652
 31
0.0
  0
LINE
  8
0
 62
     0
 10
29.3949
 20
69.8652
 30
0.0
 11
29.3949
 21
68.665
 31
0.0
  0
LINE
  8
0
 62
     0
 10
29.3949
 20
68.665
 30
0.0
 11
32.694
 21
68.665
 31
0.0
  0
LINE
  8
0
 62
     0
 10
32.694
 20
68.665
 30
0.0
 11
32.694
 21
69.8652
 31
0.0
  0
LINE
  8
0
 62
     0
 10
32.694
 20
69.8652
 30
0.0
 11
34.4193
 21
69.8652
 31
0.0
  0
LINE
  8
0
 62
     0
 10
34.4193
 20
69.8652
 30
0.0
 11
34.4193
 21
76.1351
 31
0.0
  0
LINE
  8
0
 62
     0
 10
34.4193
 20
76.1351
 30
0.0
 11
35.2447
 21
76.1351
 31
0.0
  0
LINE
  8
0
 62
     0
 10
35.2447
 20
76.1351
 30
0.0
 11
35.2447
 21
78.9354
 31
0.0
  0
LINE
  8
0
 62
     0
 10
35.2447
 20
78.9354
 30
0.0
 11
34.4193
 21
78.9354
 31
0.0
  0
LINE
  8
0
 62
     0
 10
34.4193
 20
78.9354
 30
0.0
 11
34.4193
 21
82.1655
 31
0.0
  0
LINE
  8
0
 62
     0
 10
34.4193
 20
82.1655
 30
0.0
 11
27.6696
 21
82.1655
 31
0.0
  0
LINE
  8
0
 62
     0
 10
27.6696
 20
82.1655
 30
0.0
 11
27.6696
 21
78.9354
 31
0.0
  0
LINE
  8
0
 62
     0
 10
27.6696
 20
78.9354
 30
0.0
 11
26.1441
 21
78.9354
 31
0.0
  0
LINE
  8
0
 62
     0
 10
26.1441
 20
78.9354
 30
0.0
 11
26.1441
 21
83.6344
 31
0.0
  0
LINE
  8
0
 62
     0
 10
26.1441
 20
83.6344
 30
0.0
 11
12.1447
 21
83.6344
 31
0.0
  0
LINE
  8
0
 62
     0
 10
316.945
 20
83.6344
 30
0.0
 11
316.945
 21
78.9354
 31
0.0
  0
LINE
  8
0
 62
     0
 10
316.945
 20
78.9354
 30
0.0
 11
315.419
 21
78.9354
 31
0.0
  0
LINE
  8
0
 62
     0
 10
315.419
 20
78.9354
 30
0.0
 11
315.419
 21
82.1655
 31
0.0
  0
LINE
  8
0
 62
     0
 10
315.419
 20
82.1655
 30
0.0
 11
308.67
 21
82.1655
 31
0.0
  0
LINE
  8
0
 62
     0
 10
308.67
 20
82.1655
 30
0.0
 11
308.67
 21
78.9354
 31
0.0
  0
LINE
  8
0
 62
     0
 10
308.67
 20
78.9354
 30
0.0
 11
307.844
 21
78.9354
 31
0.0
  0
LINE
  8
0
 62
     0
 10
307.844
 20
78.9354
 30
0.0
 11
307.844
 21
76.1351
 31
0.0
  0
LINE
  8
0
 62
     0
 10
307.844
 20
76.1351
 30
0.0
 11
308.67
 21
76.1351
 31
0.0
  0
LINE
  8
0
 62
     0
 10
308.67
 20
76.1351
 30
0.0
 11
308.67
 21
69.8652
 31
0.0
  0
LINE
  8
0
 62
     0
 10
308.67
 20
69.8652
 30
0.0
 11
310.395
 21
69.8652
 31
0.0
  0
LINE
  8
0
 62
     0
 10
310.395
 20
69.8652
 30
0.0
 11
310.395
 21
68.665
 31
0.0
  0
LINE
  8
0
 62
     0
 10
310.395
 20
68.665
 30
0.0
 11
313.694
 21
68.665
 31
0.0
  0
LINE
  8
0
 62
     0
 10
313.694
 20
68.665
 30
0.0
 11
313.694
 21
69.8652
 31
0.0
  0
LINE
  8
0
 62
     0
 10
313.694
 20
69.8652
 30
0.0
 11
315.419
 21
69.8652
 31
0.0
  0
LINE
  8
0
 62
     0
 10
315.419
 20
69.8652
 30
0.0
 11
315.419
 21
74.3356
 31
0.0
  0
LINE
  8
0
 62
     0
 10
315.419
 20
74.3356
 30
0.0
 11
316.945
 21
74.3356
 31
0.0
  0
LINE
  8
0
 62
     0
 10
316.945
 20
74.3356
 30
0.0
 11
316.945
 21
69.6352
 31
0.0
  0
LINE
  8
0
 62
     0
 10
316.945
 20
69.6352
 30
0.0
 11
330.944
 21
69.6352
 31
0.0
  0
LINE
  8
0
 62
     0
 10
330.944
 20
69.6352
 30
0.0
 11
330.944
 21
74.3356
 31
0.0
  0
LINE
  8
0
 62
     0
 10
330.944
 20
74.3356
 30
0.0
 11
332.47
 21
74.3356
 31
0.0
  0
LINE
  8
0
 62
     0
 10
332.47
 20
74.3356
 30
0.0
 11
332.47
 21
69.8652
 31
0.0
  0
LINE
  8
0
 62
     0
 10
332.47
 20
69.8652
 30
0.0
 11
334.195
 21
69.8652
 31
0.0
  0
LINE
  8
0
 62
     0
 10
334.195
 20
69.8652
 30
0.0
 11
334.195
 21
68.665
 31
0.0
  0
LINE
  8
0
 62
     0
 10
334.195
 20
68.665
 30
0.0
 11
337.494
 21
68.665
 31
0.0
  0
LINE
  8
0
 62
     0
 10
337.494
 20
68.665
 30
0.0
 11
337.494
 21
69.8652
 31
0.0
  0
LINE
  8
0
 62
     0
 10
337.494
 20
69.8652
 30
0.0
 11
339.219
 21
69.8652
 31
0.0
  0
LINE
  8
0
 62
     0
 10
339.219
 20
69.8652
 30
0.0
 11
339.219
 21
76.1351
 31
0.0
  0
LINE
  8
0
 62
     0
 10
339.219
 20
76.1351
 30
0.0
 11
340.045
 21
76.1351
 31
0.0
  0
LINE
  8
0
 62
     0
 10
340.045
 20
76.1351
 30
0.0
 11
340.045
 21
78.9354
 31
0.0
  0
LINE
  8
0
 62
     0
 10
340.045
 20
78.9354
 30
0.0
 11
339.219
 21
78.9354
 31
0.0
  0
LINE
  8
0
 62
     0
 10
339.219
 20
78.9354
 30
0.0
 11
339.219
 21
82.1655
 31
0.0
  0
LINE
  8
0
 62
     0
 10
339.219
 20
82.1655
 30
0.0
 11
332.47
 21
82.1655
 31
0.0
  0
LINE
  8
0
 62
     0
 10
332.47
 20
82.1655
 30
0.0
 11
332.47
 21
78.9354
 31
0.0
  0
LINE
  8
0
 62
     0
 10
332.47
 20
78.9354
 30
0.0
 11
330.944
 21
78.9354
 31
0.0
  0
LINE
  8
0
 62
     0
 10
330.944
 20
78.9354
 30
0.0
 11
330.944
 21
83.6344
 31
0.0
  0
LINE
  8
0
 62
     0
 10
330.944
 20
83.6344
 30
0.0
 11
316.945
 21
83.6344
 31
0.0
  0
LINE
  8
0
 62
     0
 10
50.2447
 20
83.6344
 30
0.0
 11
64.244
 21
83.6344
 31
0.0
  0
LINE
  8
0
 62
     0
 10
64.244
 20
83.6344
 30
0.0
 11
64.244
 21
69.6352
 31
0.0
  0
LINE
  8
0
 62
     0
 10
64.244
 20
69.6352
 30
0.0
 11
50.2447
 21
69.6352
 31
0.0
  0
LINE
  8
0
 62
     0
 10
50.2447
 20
69.6352
 30
0.0
 11
50.2447
 21
83.6344
 31
0.0
  0
LINE
  8
0
 62
     0
 10
69.2947
 20
83.6344
 30
0.0
 11
83.294
 21
83.6344
 31
0.0
  0
LINE
  8
0
 62
     0
 10
83.294
 20
83.6344
 30
0.0
 11
83.294
 21
69.6352
 31
0.0
  0
LINE
  8
0
 62
     0
 10
83.294
 20
69.6352
 30
0.0
 11
69.2947
 21
69.6352
 31
0.0
  0
LINE
  8
0
 62
     0
 10
69.2947
 20
69.6352
 30
0.0
 11
69.2947
 21
83.6344
 31
0.0
  0
LINE
  8
0
 62
     0
 10
102.632
 20
83.6344
 30
0.0
 11
116.632
 21
83.6344
 31
0.0
  0
LINE
  8
0
 62
     0
 10
116.632
 20
83.6344
 30
0.0
 11
116.632
 21
69.6352
 31
0.0
  0
LINE
  8
0
 62
     0
 10
116.632
 20
69.6352
 30
0.0
 11
102.632
 21
69.6352
 31
0.0
  0
LINE
  8
0
 62
     0
 10
102.632
 20
69.6352
 30
0.0
 11
102.632
 21
83.6344
 31
0.0
  0
LINE
  8
0
 62
     0
 10
121.682
 20
83.6344
 30
0.0
 11
135.682
 21
83.6344
 31
0.0
  0
LINE
  8
0
 62
     0
 10
135.682
 20
83.6344
 30
0.0
 11
135.682
 21
69.6352
 31
0.0
  0
LINE
  8
0
 62
     0
 10
135.682
 20
69.6352
 30
0.0
 11
121.682
 21
69.6352
 31
0.0
  0
LINE
  8
0
 62
     0
 10
121.682
 20
69.6352
 30
0.0
 11
121.682
 21
83.6344
 31
0.0
  0
LINE
  8
0
 62
     0
 10
155.02
 20
83.6344
 30
0.0
 11
169.019
 21
83.6344
 31
0.0
  0
LINE
  8
0
 62
     0
 10
169.019
 20
83.6344
 30
0.0
 11
169.019
 21
69.6352
 31
0.0
  0
LINE
  8
0
 62
     0
 10
169.019
 20
69.6352
 30
0.0
 11
155.02
 21
69.6352
 31
0.0
  0
LINE
  8
0
 62
     0
 10
155.02
 20
69.6352
 30
0.0
 11
155.02
 21
83.6344
 31
0.0
  0
LINE
  8
0
 62
     0
 10
174.07
 20
83.6344
 30
0.0
 11
188.069
 21
83.6344
 31
0.0
  0
LINE
  8
0
 62
     0
 10
188.069
 20
83.6344
 30
0.0
 11
188.069
 21
69.6352
 31
0.0
  0
LINE
  8
0
 62
     0
 10
188.069
 20
69.6352
 30
0.0
 11
174.07
 21
69.6352
 31
0.0
  0
LINE
  8
0
 62
     0
 10
174.07
 20
69.6352
 30
0.0
 11
174.07
 21
83.6344
 31
0.0
  0
LINE
  8
0
 62
     0
 10
207.407
 20
83.6344
 30
0.0
 11
221.407
 21
83.6344
 31
0.0
  0
LINE
  8
0
 62
     0
 10
221.407
 20
83.6344
 30
0.0
 11
221.407
 21
69.6352
 31
0.0
  0
LINE
  8
0
 62
     0
 10
221.407
 20
69.6352
 30
0.0
 11
207.407
 21
69.6352
 31
0.0
  0
LINE
  8
0
 62
     0
 10
207.407
 20
69.6352
 30
0.0
 11
207.407
 21
83.6344
 31
0.0
  0
LINE
  8
0
 62
     0
 10
226.457
 20
83.6344
 30
0.0
 11
240.457
 21
83.6344
 31
0.0
  0
LINE
  8
0
 62
     0
 10
240.457
 20
83.6344
 30
0.0
 11
240.457
 21
69.6352
 31
0.0
  0
LINE
  8
0
 62
     0
 10
240.457
 20
69.6352
 30
0.0
 11
226.457
 21
69.6352
 31
0.0
  0
LINE
  8
0
 62
     0
 10
226.457
 20
69.6352
 30
0.0
 11
226.457
 21
83.6344
 31
0.0
  0
LINE
  8
0
 62
     0
 10
259.795
 20
83.6344
 30
0.0
 11
273.794
 21
83.6344
 31
0.0
  0
LINE
  8
0
 62
     0
 10
273.794
 20
83.6344
 30
0.0
 11
273.794
 21
69.6352
 31
0.0
  0
LINE
  8
0
 62
     0
 10
273.794
 20
69.6352
 30
0.0
 11
259.795
 21
69.6352
 31
0.0
  0
LINE
  8
0
 62
     0
 10
259.795
 20
69.6352
 30
0.0
 11
259.795
 21
83.6344
 31
0.0
  0
LINE
  8
0
 62
     0
 10
278.845
 20
83.6344
 30
0.0
 11
292.844
 21
83.6344
 31
0.0
  0
LINE
  8
0
 62
     0
 10
292.844
 20
83.6344
 30
0.0
 11
292.844
 21
69.6352
 31
0.0
  0
LINE
  8
0
 62
     0
 10
292.844
 20
69.6352
 30
0.0
 11
278.845
 21
69.6352
 31
0.0
  0
LINE
  8
0
 62
     0
 10
278.845
 20
69.6352
 30
0.0
 11
278.845
 21
83.6344
 31
0.0
  0
LINE
  8
0
 62
     0
 10
12.1447
 20
102.684
 30
0.0
 11
12.1447
 21
97.9854
 31
0.0
  0
LINE
  8
0
 62
     0
 10
12.1447
 20
97.9854
 30
0.0
 11
10.6192
 21
97.9854
 31
0.0
  0
LINE
  8
0
 62
     0
 10
10.6192
 20
97.9854
 30
0.0
 11
10.6192
 21
101.215
 31
0.0
  0
LINE
  8
0
 62
     0
 10
10.6192
 20
101.215
 30
0.0
 11
3.86955
 21
101.215
 31
0.0
  0
LINE
  8
0
 62
     0
 10
3.86955
 20
101.215
 30
0.0
 11
3.86955
 21
97.9854
 31
0.0
  0
LINE
  8
0
 62
     0
 10
3.86955
 20
97.9854
 30
0.0
 11
3.04409
 21
97.9854
 31
0.0
  0
LINE
  8
0
 62
     0
 10
3.04409
 20
97.9854
 30
0.0
 11
3.04409
 21
95.1851
 31
0.0
  0
LINE
  8
0
 62
     0
 10
3.04409
 20
95.1851
 30
0.0
 11
3.86955
 21
95.1851
 31
0.0
  0
LINE
  8
0
 62
     0
 10
3.86955
 20
95.1851
 30
0.0
 11
3.86955
 21
88.9152
 31
0.0
  0
LINE
  8
0
 62
     0
 10
3.86955
 20
88.9152
 30
0.0
 11
5.59484
 21
88.9152
 31
0.0
  0
LINE
  8
0
 62
     0
 10
5.59484
 20
88.9152
 30
0.0
 11
5.59484
 21
87.715
 31
0.0
  0
LINE
  8
0
 62
     0
 10
5.59484
 20
87.715
 30
0.0
 11
8.89385
 21
87.715
 31
0.0
  0
LINE
  8
0
 62
     0
 10
8.89385
 20
87.715
 30
0.0
 11
8.89385
 21
88.9152
 31
0.0
  0
LINE
  8
0
 62
     0
 10
8.89385
 20
88.9152
 30
0.0
 11
10.6192
 21
88.9152
 31
0.0
  0
LINE
  8
0
 62
     0
 10
10.6192
 20
88.9152
 30
0.0
 11
10.6192
 21
93.3856
 31
0.0
  0
LINE
  8
0
 62
     0
 10
10.6192
 20
93.3856
 30
0.0
 11
12.1447
 21
93.3856
 31
0.0
  0
LINE
  8
0
 62
     0
 10
12.1447
 20
93.3856
 30
0.0
 11
12.1447
 21
88.6852
 31
0.0
  0
LINE
  8
0
 62
     0
 10
12.1447
 20
88.6852
 30
0.0
 11
26.1441
 21
88.6852
 31
0.0
  0
LINE
  8
0
 62
     0
 10
26.1441
 20
88.6852
 30
0.0
 11
26.1441
 21
93.3856
 31
0.0
  0
LINE
  8
0
 62
     0
 10
26.1441
 20
93.3856
 30
0.0
 11
27.6696
 21
93.3856
 31
0.0
  0
LINE
  8
0
 62
     0
 10
27.6696
 20
93.3856
 30
0.0
 11
27.6696
 21
88.9152
 31
0.0
  0
LINE
  8
0
 62
     0
 10
27.6696
 20
88.9152
 30
0.0
 11
29.3949
 21
88.9152
 31
0.0
  0
LINE
  8
0
 62
     0
 10
29.3949
 20
88.9152
 30
0.0
 11
29.3949
 21
87.715
 31
0.0
  0
LINE
  8
0
 62
     0
 10
29.3949
 20
87.715
 30
0.0
 11
32.694
 21
87.715
 31
0.0
  0
LINE
  8
0
 62
     0
 10
32.694
 20
87.715
 30
0.0
 11
32.694
 21
88.9152
 31
0.0
  0
LINE
  8
0
 62
     0
 10
32.694
 20
88.9152
 30
0.0
 11
34.4193
 21
88.9152
 31
0.0
  0
LINE
  8
0
 62
     0
 10
34.4193
 20
88.9152
 30
0.0
 11
34.4193
 21
95.1851
 31
0.0
  0
LINE
  8
0
 62
     0
 10
34.4193
 20
95.1851
 30
0.0
 11
35.2447
 21
95.1851
 31
0.0
  0
LINE
  8
0
 62
     0
 10
35.2447
 20
95.1851
 30
0.0
 11
35.2447
 21
97.9854
 31
0.0
  0
LINE
  8
0
 62
     0
 10
35.2447
 20
97.9854
 30
0.0
 11
34.4193
 21
97.9854
 31
0.0
  0
LINE
  8
0
 62
     0
 10
34.4193
 20
97.9854
 30
0.0
 11
34.4193
 21
101.215
 31
0.0
  0
LINE
  8
0
 62
     0
 10
34.4193
 20
101.215
 30
0.0
 11
27.6696
 21
101.215
 31
0.0
  0
LINE
  8
0
 62
     0
 10
27.6696
 20
101.215
 30
0.0
 11
27.6696
 21
97.9854
 31
0.0
  0
LINE
  8
0
 62
     0
 10
27.6696
 20
97.9854
 30
0.0
 11
26.1441
 21
97.9854
 31
0.0
  0
LINE
  8
0
 62
     0
 10
26.1441
 20
97.9854
 30
0.0
 11
26.1441
 21
102.684
 31
0.0
  0
LINE
  8
0
 62
     0
 10
26.1441
 20
102.684
 30
0.0
 11
12.1447
 21
102.684
 31
0.0
  0
LINE
  8
0
 62
     0
 10
50.2447
 20
102.684
 30
0.0
 11
64.244
 21
102.684
 31
0.0
  0
LINE
  8
0
 62
     0
 10
64.244
 20
102.684
 30
0.0
 11
64.244
 21
88.6852
 31
0.0
  0
LINE
  8
0
 62
     0
 10
64.244
 20
88.6852
 30
0.0
 11
50.2447
 21
88.6852
 31
0.0
  0
LINE
  8
0
 62
     0
 10
50.2447
 20
88.6852
 30
0.0
 11
50.2447
 21
102.684
 31
0.0
  0
LINE
  8
0
 62
     0
 10
69.2947
 20
102.684
 30
0.0
 11
83.294
 21
102.684
 31
0.0
  0
LINE
  8
0
 62
     0
 10
83.294
 20
102.684
 30
0.0
 11
83.294
 21
88.6852
 31
0.0
  0
LINE
  8
0
 62
     0
 10
83.294
 20
88.6852
 30
0.0
 11
69.2947
 21
88.6852
 31
0.0
  0
LINE
  8
0
 62
     0
 10
69.2947
 20
88.6852
 30
0.0
 11
69.2947
 21
102.684
 31
0.0
  0
LINE
  8
0
 62
     0
 10
102.632
 20
102.684
 30
0.0
 11
116.632
 21
102.684
 31
0.0
  0
LINE
  8
0
 62
     0
 10
116.632
 20
102.684
 30
0.0
 11
116.632
 21
88.6852
 31
0.0
  0
LINE
  8
0
 62
     0
 10
116.632
 20
88.6852
 30
0.0
 11
102.632
 21
88.6852
 31
0.0
  0
LINE
  8
0
 62
     0
 10
102.632
 20
88.6852
 30
0.0
 11
102.632
 21
102.684
 31
0.0
  0
LINE
  8
0
 62
     0
 10
121.682
 20
102.684
 30
0.0
 11
135.682
 21
102.684
 31
0.0
  0
LINE
  8
0
 62
     0
 10
135.682
 20
102.684
 30
0.0
 11
135.682
 21
88.6852
 31
0.0
  0
LINE
  8
0
 62
     0
 10
135.682
 20
88.6852
 30
0.0
 11
121.682
 21
88.6852
 31
0.0
  0
LINE
  8
0
 62
     0
 10
121.682
 20
88.6852
 30
0.0
 11
121.682
 21
102.684
 31
0.0
  0
LINE
  8
0
 62
     0
 10
155.02
 20
102.684
 30
0.0
 11
169.019
 21
102.684
 31
0.0
  0
LINE
  8
0
 62
     0
 10
169.019
 20
102.684
 30
0.0
 11
169.019
 21
88.6852
 31
0.0
  0
LINE
  8
0
 62
     0
 10
169.019
 20
88.6852
 30
0.0
 11
155.02
 21
88.6852
 31
0.0
  0
LINE
  8
0
 62
     0
 10
155.02
 20
88.6852
 30
0.0
 11
155.02
 21
102.684
 31
0.0
  0
LINE
  8
0
 62
     0
 10
174.07
 20
102.684
 30
0.0
 11
188.069
 21
102.684
 31
0.0
  0
LINE
  8
0
 62
     0
 10
188.069
 20
102.684
 30
0.0
 11
188.069
 21
88.6852
 31
0.0
  0
LINE
  8
0
 62
     0
 10
188.069
 20
88.6852
 30
0.0
 11
174.07
 21
88.6852
 31
0.0
  0
LINE
  8
0
 62
     0
 10
174.07
 20
88.6852
 30
0.0
 11
174.07
 21
102.684
 31
0.0
  0
LINE
  8
0
 62
     0
 10
207.407
 20
102.684
 30
0.0
 11
221.407
 21
102.684
 31
0.0
  0
LINE
  8
0
 62
     0
 10
221.407
 20
102.684
 30
0.0
 11
221.407
 21
88.6852
 31
0.0
  0
LINE
  8
0
 62
     0
 10
221.407
 20
88.6852
 30
0.0
 11
207.407
 21
88.6852
 31
0.0
  0
LINE
  8
0
 62
     0
 10
207.407
 20
88.6852
 30
0.0
 11
207.407
 21
102.684
 31
0.0
  0
LINE
  8
0
 62
     0
 10
226.457
 20
102.684
 30
0.0
 11
240.457
 21
102.684
 31
0.0
  0
LINE
  8
0
 62
     0
 10
240.457
 20
102.684
 30
0.0
 11
240.457
 21
88.6852
 31
0.0
  0
LINE
  8
0
 62
     0
 10
240.457
 20
88.6852
 30
0.0
 11
226.457
 21
88.6852
 31
0.0
  0
LINE
  8
0
 62
     0
 10
226.457
 20
88.6852
 30
0.0
 11
226.457
 21
102.684
 31
0.0
  0
LINE
  8
0
 62
     0
 10
259.795
 20
102.684
 30
0.0
 11
273.794
 21
102.684
 31
0.0
  0
LINE
  8
0
 62
     0
 10
273.794
 20
102.684
 30
0.0
 11
273.794
 21
88.6852
 31
0.0
  0
LINE
  8
0
 62
     0
 10
273.794
 20
88.6852
 30
0.0
 11
259.795
 21
88.6852
 31
0.0
  0
LINE
  8
0
 62
     0
 10
259.795
 20
88.6852
 30
0.0
 11
259.795
 21
102.684
 31
0.0
  0
LINE
  8
0
 62
     0
 10
278.845
 20
102.684
 30
0.0
 11
292.844
 21
102.684
 31
0.0
  0
LINE
  8
0
 62
     0
 10
292.844
 20
102.684
 30
0.0
 11
292.844
 21
88.6852
 31
0.0
  0
LINE
  8
0
 62
     0
 10
292.844
 20
88.6852
 30
0.0
 11
278.845
 21
88.6852
 31
0.0
  0
LINE
  8
0
 62
     0
 10
278.845
 20
88.6852
 30
0.0
 11
278.845
 21
102.684
 31
0.0
  0
LINE
  8
0
 62
     0
 10
316.945
 20
126.497
 30
0.0
 11
316.945
 21
121.797
 31
0.0
  0
LINE
  8
0
 62
     0
 10
316.945
 20
121.797
 30
0.0
 11
315.419
 21
121.797
 31
0.0
  0
LINE
  8
0
 62
     0
 10
315.419
 20
121.797
 30
0.0
 11
315.419
 21
125.027
 31
0.0
  0
LINE
  8
0
 62
     0
 10
315.419
 20
125.027
 30
0.0
 11
308.67
 21
125.027
 31
0.0
  0
LINE
  8
0
 62
     0
 10
308.67
 20
125.027
 30
0.0
 11
308.67
 21
121.797
 31
0.0
  0
LINE
  8
0
 62
     0
 10
308.67
 20
121.797
 30
0.0
 11
307.844
 21
121.797
 31
0.0
  0
LINE
  8
0
 62
     0
 10
307.844
 20
121.797
 30
0.0
 11
307.844
 21
118.998
 31
0.0
  0
LINE
  8
0
 62
     0
 10
307.844
 20
118.998
 30
0.0
 11
308.67
 21
118.998
 31
0.0
  0
LINE
  8
0
 62
     0
 10
308.67
 20
118.998
 30
0.0
 11
308.67
 21
112.728
 31
0.0
  0
LINE
  8
0
 62
     0
 10
308.67
 20
112.728
 30
0.0
 11
310.395
 21
112.728
 31
0.0
  0
LINE
  8
0
 62
     0
 10
310.395
 20
112.728
 30
0.0
 11
310.395
 21
111.528
 31
0.0
  0
LINE
  8
0
 62
     0
 10
310.395
 20
111.528
 30
0.0
 11
313.694
 21
111.528
 31
0.0
  0
LINE
  8
0
 62
     0
 10
313.694
 20
111.528
 30
0.0
 11
313.694
 21
112.728
 31
0.0
  0
LINE
  8
0
 62
     0
 10
313.694
 20
112.728
 30
0.0
 11
315.419
 21
112.728
 31
0.0
  0
LINE
  8
0
 62
     0
 10
315.419
 20
112.728
 30
0.0
 11
315.419
 21
117.197
 31
0.0
  0
LINE
  8
0
 62
     0
 10
315.419
 20
117.197
 30
0.0
 11
316.945
 21
117.197
 31
0.0
  0
LINE
  8
0
 62
     0
 10
316.945
 20
117.197
 30
0.0
 11
316.945
 21
112.498
 31
0.0
  0
LINE
  8
0
 62
     0
 10
316.945
 20
112.498
 30
0.0
 11
330.944
 21
112.498
 31
0.0
  0
LINE
  8
0
 62
     0
 10
330.944
 20
112.498
 30
0.0
 11
330.944
 21
117.197
 31
0.0
  0
LINE
  8
0
 62
     0
 10
330.944
 20
117.197
 30
0.0
 11
332.47
 21
117.197
 31
0.0
  0
LINE
  8
0
 62
     0
 10
332.47
 20
117.197
 30
0.0
 11
332.47
 21
112.728
 31
0.0
  0
LINE
  8
0
 62
     0
 10
332.47
 20
112.728
 30
0.0
 11
334.195
 21
112.728
 31
0.0
  0
LINE
  8
0
 62
     0
 10
334.195
 20
112.728
 30
0.0
 11
334.195
 21
111.528
 31
0.0
  0
LINE
  8
0
 62
     0
 10
334.195
 20
111.528
 30
0.0
 11
337.494
 21
111.528
 31
0.0
  0
LINE
  8
0
 62
     0
 10
337.494
 20
111.528
 30
0.0
 11
337.494
 21
112.728
 31
0.0
  0
LINE
  8
0
 62
     0
 10
337.494
 20
112.728
 30
0.0
 11
339.219
 21
112.728
 31
0.0
  0
LINE
  8
0
 62
     0
 10
339.219
 20
112.728
 30
0.0
 11
339.219
 21
118.998
 31
0.0
  0
LINE
  8
0
 62
     0
 10
339.219
 20
118.998
 30
0.0
 11
340.045
 21
118.998
 31
0.0
  0
LINE
  8
0
 62
     0
 10
340.045
 20
118.998
 30
0.0
 11
340.045
 21
121.797
 31
0.0
  0
LINE
  8
0
 62
     0
 10
340.045
 20
121.797
 30
0.0
 11
339.219
 21
121.797
 31
0.0
  0
LINE
  8
0
 62
     0
 10
339.219
 20
121.797
 30
0.0
 11
339.219
 21
125.027
 31
0.0
  0
LINE
  8
0
 62
     0
 10
339.219
 20
125.027
 30
0.0
 11
332.47
 21
125.027
 31
0.0
  0
LINE
  8
0
 62
     0
 10
332.47
 20
125.027
 30
0.0
 11
332.47
 21
121.797
 31
0.0
  0
LINE
  8
0
 62
     0
 10
332.47
 20
121.797
 30
0.0
 11
330.944
 21
121.797
 31
0.0
  0
LINE
  8
0
 62
     0
 10
330.944
 20
121.797
 30
0.0
 11
330.944
 21
126.497
 31
0.0
  0
LINE
  8
0
 62
     0
 10
330.944
 20
126.497
 30
0.0
 11
316.945
 21
126.497
 31
0.0
  0
LINE
  8
0
 62
     0
 10
2.61965
 20
126.497
 30
0.0
 11
16.6192
 21
126.497
 31
0.0
  0
LINE
  8
0
 62
     0
 10
16.6192
 20
126.497
 30
0.0
 11
16.6192
 21
112.498
 31
0.0
  0
LINE
  8
0
 62
     0
 10
16.6192
 20
112.498
 30
0.0
 11
2.61965
 21
112.498
 31
0.0
  0
LINE
  8
0
 62
     0
 10
2.61965
 20
112.498
 30
0.0
 11
2.61965
 21
126.497
 31
0.0
  0
LINE
  8
0
 62
     0
 10
26.4322
 20
126.497
 30
0.0
 11
40.4315
 21
126.497
 31
0.0
  0
LINE
  8
0
 62
     0
 10
40.4315
 20
126.497
 30
0.0
 11
40.4315
 21
112.498
 31
0.0
  0
LINE
  8
0
 62
     0
 10
40.4315
 20
112.498
 30
0.0
 11
26.4322
 21
112.498
 31
0.0
  0
LINE
  8
0
 62
     0
 10
26.4322
 20
112.498
 30
0.0
 11
26.4322
 21
126.497
 31
0.0
  0
LINE
  8
0
 62
     0
 10
45.4822
 20
126.497
 30
0.0
 11
59.4815
 21
126.497
 31
0.0
  0
LINE
  8
0
 62
     0
 10
59.4815
 20
126.497
 30
0.0
 11
59.4815
 21
112.498
 31
0.0
  0
LINE
  8
0
 62
     0
 10
59.4815
 20
112.498
 30
0.0
 11
45.4822
 21
112.498
 31
0.0
  0
LINE
  8
0
 62
     0
 10
45.4822
 20
112.498
 30
0.0
 11
45.4822
 21
126.497
 31
0.0
  0
LINE
  8
0
 62
     0
 10
64.5322
 20
126.497
 30
0.0
 11
78.5315
 21
126.497
 31
0.0
  0
LINE
  8
0
 62
     0
 10
78.5315
 20
126.497
 30
0.0
 11
78.5315
 21
112.498
 31
0.0
  0
LINE
  8
0
 62
     0
 10
78.5315
 20
112.498
 30
0.0
 11
64.5322
 21
112.498
 31
0.0
  0
LINE
  8
0
 62
     0
 10
64.5322
 20
112.498
 30
0.0
 11
64.5322
 21
126.497
 31
0.0
  0
LINE
  8
0
 62
     0
 10
83.5822
 20
126.497
 30
0.0
 11
97.5815
 21
126.497
 31
0.0
  0
LINE
  8
0
 62
     0
 10
97.5815
 20
126.497
 30
0.0
 11
97.5815
 21
112.498
 31
0.0
  0
LINE
  8
0
 62
     0
 10
97.5815
 20
112.498
 30
0.0
 11
83.5822
 21
112.498
 31
0.0
  0
LINE
  8
0
 62
     0
 10
83.5822
 20
112.498
 30
0.0
 11
83.5822
 21
126.497
 31
0.0
  0
LINE
  8
0
 62
     0
 10
102.632
 20
126.497
 30
0.0
 11
116.632
 21
126.497
 31
0.0
  0
LINE
  8
0
 62
     0
 10
116.632
 20
126.497
 30
0.0
 11
116.632
 21
112.498
 31
0.0
  0
LINE
  8
0
 62
     0
 10
116.632
 20
112.498
 30
0.0
 11
102.632
 21
112.498
 31
0.0
  0
LINE
  8
0
 62
     0
 10
102.632
 20
112.498
 30
0.0
 11
102.632
 21
126.497
 31
0.0
  0
LINE
  8
0
 62
     0
 10
121.682
 20
126.497
 30
0.0
 11
135.682
 21
126.497
 31
0.0
  0
LINE
  8
0
 62
     0
 10
135.682
 20
126.497
 30
0.0
 11
135.682
 21
112.498
 31
0.0
  0
LINE
  8
0
 62
     0
 10
135.682
 20
112.498
 30
0.0
 11
121.682
 21
112.498
 31
0.0
  0
LINE
  8
0
 62
     0
 10
121.682
 20
112.498
 30
0.0
 11
121.682
 21
126.497
 31
0.0
  0
LINE
  8
0
 62
     0
 10
140.732
 20
126.497
 30
0.0
 11
154.732
 21
126.497
 31
0.0
  0
LINE
  8
0
 62
     0
 10
154.732
 20
126.497
 30
0.0
 11
154.732
 21
112.498
 31
0.0
  0
LINE
  8
0
 62
     0
 10
154.732
 20
112.498
 30
0.0
 11
140.732
 21
112.498
 31
0.0
  0
LINE
  8
0
 62
     0
 10
140.732
 20
112.498
 30
0.0
 11
140.732
 21
126.497
 31
0.0
  0
LINE
  8
0
 62
     0
 10
159.782
 20
126.497
 30
0.0
 11
173.782
 21
126.497
 31
0.0
  0
LINE
  8
0
 62
     0
 10
173.782
 20
126.497
 30
0.0
 11
173.782
 21
112.498
 31
0.0
  0
LINE
  8
0
 62
     0
 10
173.782
 20
112.498
 30
0.0
 11
159.782
 21
112.498
 31
0.0
  0
LINE
  8
0
 62
     0
 10
159.782
 20
112.498
 30
0.0
 11
159.782
 21
126.497
 31
0.0
  0
LINE
  8
0
 62
     0
 10
178.832
 20
126.497
 30
0.0
 11
192.832
 21
126.497
 31
0.0
  0
LINE
  8
0
 62
     0
 10
192.832
 20
126.497
 30
0.0
 11
192.832
 21
112.498
 31
0.0
  0
LINE
  8
0
 62
     0
 10
192.832
 20
112.498
 30
0.0
 11
178.832
 21
112.498
 31
0.0
  0
LINE
  8
0
 62
     0
 10
178.832
 20
112.498
 30
0.0
 11
178.832
 21
126.497
 31
0.0
  0
LINE
  8
0
 62
     0
 10
197.882
 20
126.497
 30
0.0
 11
211.882
 21
126.497
 31
0.0
  0
LINE
  8
0
 62
     0
 10
211.882
 20
126.497
 30
0.0
 11
211.882
 21
112.498
 31
0.0
  0
LINE
  8
0
 62
     0
 10
211.882
 20
112.498
 30
0.0
 11
197.882
 21
112.498
 31
0.0
  0
LINE
  8
0
 62
     0
 10
197.882
 20
112.498
 30
0.0
 11
197.882
 21
126.497
 31
0.0
  0
LINE
  8
0
 62
     0
 10
216.932
 20
126.497
 30
0.0
 11
230.932
 21
126.497
 31
0.0
  0
LINE
  8
0
 62
     0
 10
230.932
 20
126.497
 30
0.0
 11
230.932
 21
112.498
 31
0.0
  0
LINE
  8
0
 62
     0
 10
230.932
 20
112.498
 30
0.0
 11
216.932
 21
112.498
 31
0.0
  0
LINE
  8
0
 62
     0
 10
216.932
 20
112.498
 30
0.0
 11
216.932
 21
126.497
 31
0.0
  0
LINE
  8
0
 62
     0
 10
235.982
 20
126.497
 30
0.0
 11
249.982
 21
126.497
 31
0.0
  0
LINE
  8
0
 62
     0
 10
249.982
 20
126.497
 30
0.0
 11
249.982
 21
112.498
 31
0.0
  0
LINE
  8
0
 62
     0
 10
249.982
 20
112.498
 30
0.0
 11
235.982
 21
112.498
 31
0.0
  0
LINE
  8
0
 62
     0
 10
235.982
 20
112.498
 30
0.0
 11
235.982
 21
126.497
 31
0.0
  0
LINE
  8
0
 62
     0
 10
255.032
 20
126.497
 30
0.0
 11
269.032
 21
126.497
 31
0.0
  0
LINE
  8
0
 62
     0
 10
269.032
 20
126.497
 30
0.0
 11
269.032
 21
112.498
 31
0.0
  0
LINE
  8
0
 62
     0
 10
269.032
 20
112.498
 30
0.0
 11
255.032
 21
112.498
 31
0.0
  0
LINE
  8
0
 62
     0
 10
255.032
 20
112.498
 30
0.0
 11
255.032
 21
126.497
 31
0.0
  0
ENDSEC
  0
EOF
