  0
SECTION
  2
HEADER
  9
$ACADVER
  1
AC1009
  9
$FILLMODE
 70
 0
  9
$SPLFRAME
 70
 1
  9
$EXTMIN
 10
0
 20
0
 30
0.0
  9
$EXTMAX
 10
1058.33
 20
1058.33
 30
0.0
  0
ENDSEC
  0
SECTION
  2
TABLES
  0
TABLE
  2
LAYER
 70
1
  0
LAYER
  2
0
 70
     0
 62
     7
  6
CONTINUOUS
  0
ENDTAB
  0
ENDSEC
  0
SECTION
  2
ENTITIES
  0
LINE
  8
0
 62
     0
 10
0.0950846
 20
124.083
 30
0.0
 11
314.42
 21
124.083
 31
0.0
  0
LINE
  8
0
 62
     0
 10
314.42
 20
124.083
 30
0.0
 11
314.42
 21
0.257693
 31
0.0
  0
LINE
  8
0
 62
     0
 10
314.42
 20
0.257693
 30
0.0
 11
0.0950846
 21
0.257693
 31
0.0
  0
LINE
  8
0
 62
     0
 10
0.0950846
 20
0.257693
 30
0.0
 11
0.0950846
 21
124.083
 31
0.0
  0
LINE
  8
0
 62
     0
 10
121.682
 20
16.7831
 30
0.0
 11
121.682
 21
12.0826
 31
0.0
  0
LINE
  8
0
 62
     0
 10
121.682
 20
12.0826
 30
0.0
 11
79.6766
 21
12.0826
 31
0.0
  0
LINE
  8
0
 62
     0
 10
79.6766
 20
12.0826
 30
0.0
 11
79.6766
 21
15.3128
 31
0.0
  0
LINE
  8
0
 62
     0
 10
79.6766
 20
15.3128
 30
0.0
 11
72.9273
 21
15.3128
 31
0.0
  0
LINE
  8
0
 62
     0
 10
72.9273
 20
15.3128
 30
0.0
 11
72.9273
 21
12.0826
 31
0.0
  0
LINE
  8
0
 62
     0
 10
72.9273
 20
12.0826
 30
0.0
 11
72.1018
 21
12.0826
 31
0.0
  0
LINE
  8
0
 62
     0
 10
72.1018
 20
12.0826
 30
0.0
 11
72.1018
 21
9.28384
 31
0.0
  0
LINE
  8
0
 62
     0
 10
72.1018
 20
9.28384
 30
0.0
 11
72.9273
 21
9.28384
 31
0.0
  0
LINE
  8
0
 62
     0
 10
72.9273
 20
9.28384
 30
0.0
 11
72.9273
 21
3.01377
 31
0.0
  0
LINE
  8
0
 62
     0
 10
72.9273
 20
3.01377
 30
0.0
 11
74.651
 21
3.01377
 31
0.0
  0
LINE
  8
0
 62
     0
 10
74.651
 20
3.01377
 30
0.0
 11
74.651
 21
1.8135
 31
0.0
  0
LINE
  8
0
 62
     0
 10
74.651
 20
1.8135
 30
0.0
 11
77.9515
 21
1.8135
 31
0.0
  0
LINE
  8
0
 62
     0
 10
77.9515
 20
1.8135
 30
0.0
 11
77.9515
 21
3.01377
 31
0.0
  0
LINE
  8
0
 62
     0
 10
77.9515
 20
3.01377
 30
0.0
 11
79.6766
 21
3.01377
 31
0.0
  0
LINE
  8
0
 62
     0
 10
79.6766
 20
3.01377
 30
0.0
 11
79.6766
 21
7.48273
 31
0.0
  0
LINE
  8
0
 62
     0
 10
79.6766
 20
7.48273
 30
0.0
 11
121.682
 21
7.48273
 31
0.0
  0
LINE
  8
0
 62
     0
 10
121.682
 20
7.48273
 30
0.0
 11
121.682
 21
2.78364
 31
0.0
  0
LINE
  8
0
 62
     0
 10
121.682
 20
2.78364
 30
0.0
 11
135.682
 21
2.78364
 31
0.0
  0
LINE
  8
0
 62
     0
 10
135.682
 20
2.78364
 30
0.0
 11
135.682
 21
7.48273
 31
0.0
  0
LINE
  8
0
 62
     0
 10
135.682
 20
7.48273
 30
0.0
 11
177.687
 21
7.48273
 31
0.0
  0
LINE
  8
0
 62
     0
 10
177.687
 20
7.48273
 30
0.0
 11
177.687
 21
3.01377
 31
0.0
  0
LINE
  8
0
 62
     0
 10
177.687
 20
3.01377
 30
0.0
 11
179.411
 21
3.01377
 31
0.0
  0
LINE
  8
0
 62
     0
 10
179.411
 20
3.01377
 30
0.0
 11
179.411
 21
1.8135
 31
0.0
  0
LINE
  8
0
 62
     0
 10
179.411
 20
1.8135
 30
0.0
 11
182.711
 21
1.8135
 31
0.0
  0
LINE
  8
0
 62
     0
 10
182.711
 20
1.8135
 30
0.0
 11
182.711
 21
3.01377
 31
0.0
  0
LINE
  8
0
 62
     0
 10
182.711
 20
3.01377
 30
0.0
 11
184.437
 21
3.01377
 31
0.0
  0
LINE
  8
0
 62
     0
 10
184.437
 20
3.01377
 30
0.0
 11
184.437
 21
9.28384
 31
0.0
  0
LINE
  8
0
 62
     0
 10
184.437
 20
9.28384
 30
0.0
 11
185.262
 21
9.28384
 31
0.0
  0
LINE
  8
0
 62
     0
 10
185.262
 20
9.28384
 30
0.0
 11
185.262
 21
12.0826
 31
0.0
  0
LINE
  8
0
 62
     0
 10
185.262
 20
12.0826
 30
0.0
 11
184.437
 21
12.0826
 31
0.0
  0
LINE
  8
0
 62
     0
 10
184.437
 20
12.0826
 30
0.0
 11
184.437
 21
15.3128
 31
0.0
  0
LINE
  8
0
 62
     0
 10
184.437
 20
15.3128
 30
0.0
 11
177.687
 21
15.3128
 31
0.0
  0
LINE
  8
0
 62
     0
 10
177.687
 20
15.3128
 30
0.0
 11
177.687
 21
12.0826
 31
0.0
  0
LINE
  8
0
 62
     0
 10
177.687
 20
12.0826
 30
0.0
 11
135.682
 21
12.0826
 31
0.0
  0
LINE
  8
0
 62
     0
 10
135.682
 20
12.0826
 30
0.0
 11
135.682
 21
16.7831
 31
0.0
  0
LINE
  8
0
 62
     0
 10
135.682
 20
16.7831
 30
0.0
 11
121.682
 21
16.7831
 31
0.0
  0
LINE
  8
0
 62
     0
 10
7.38216
 20
16.7831
 30
0.0
 11
21.3817
 21
16.7831
 31
0.0
  0
LINE
  8
0
 62
     0
 10
21.3817
 20
16.7831
 30
0.0
 11
21.3817
 21
2.78364
 31
0.0
  0
LINE
  8
0
 62
     0
 10
21.3817
 20
2.78364
 30
0.0
 11
7.38216
 21
2.78364
 31
0.0
  0
LINE
  8
0
 62
     0
 10
7.38216
 20
2.78364
 30
0.0
 11
7.38216
 21
16.7831
 31
0.0
  0
LINE
  8
0
 62
     0
 10
35.9572
 20
16.7831
 30
0.0
 11
49.9565
 21
16.7831
 31
0.0
  0
LINE
  8
0
 62
     0
 10
49.9565
 20
16.7831
 30
0.0
 11
49.9565
 21
2.78364
 31
0.0
  0
LINE
  8
0
 62
     0
 10
49.9565
 20
2.78364
 30
0.0
 11
35.9572
 21
2.78364
 31
0.0
  0
LINE
  8
0
 62
     0
 10
35.9572
 20
2.78364
 30
0.0
 11
35.9572
 21
16.7831
 31
0.0
  0
LINE
  8
0
 62
     0
 10
207.407
 20
16.7831
 30
0.0
 11
221.407
 21
16.7831
 31
0.0
  0
LINE
  8
0
 62
     0
 10
221.407
 20
16.7831
 30
0.0
 11
221.407
 21
2.78364
 31
0.0
  0
LINE
  8
0
 62
     0
 10
221.407
 20
2.78364
 30
0.0
 11
207.407
 21
2.78364
 31
0.0
  0
LINE
  8
0
 62
     0
 10
207.407
 20
2.78364
 30
0.0
 11
207.407
 21
16.7831
 31
0.0
  0
LINE
  8
0
 62
     0
 10
235.982
 20
16.7831
 30
0.0
 11
249.982
 21
16.7831
 31
0.0
  0
LINE
  8
0
 62
     0
 10
249.982
 20
16.7831
 30
0.0
 11
249.982
 21
2.78364
 31
0.0
  0
LINE
  8
0
 62
     0
 10
249.982
 20
2.78364
 30
0.0
 11
235.982
 21
2.78364
 31
0.0
  0
LINE
  8
0
 62
     0
 10
235.982
 20
2.78364
 30
0.0
 11
235.982
 21
16.7831
 31
0.0
  0
LINE
  8
0
 62
     0
 10
259.795
 20
16.7831
 30
0.0
 11
273.794
 21
16.7831
 31
0.0
  0
LINE
  8
0
 62
     0
 10
273.794
 20
16.7831
 30
0.0
 11
273.794
 21
2.78364
 31
0.0
  0
LINE
  8
0
 62
     0
 10
273.794
 20
2.78364
 30
0.0
 11
259.795
 21
2.78364
 31
0.0
  0
LINE
  8
0
 62
     0
 10
259.795
 20
2.78364
 30
0.0
 11
259.795
 21
16.7831
 31
0.0
  0
LINE
  8
0
 62
     0
 10
278.845
 20
16.7831
 30
0.0
 11
292.844
 21
16.7831
 31
0.0
  0
LINE
  8
0
 62
     0
 10
292.844
 20
16.7831
 30
0.0
 11
292.844
 21
2.78364
 31
0.0
  0
LINE
  8
0
 62
     0
 10
292.844
 20
2.78364
 30
0.0
 11
278.845
 21
2.78364
 31
0.0
  0
LINE
  8
0
 62
     0
 10
278.845
 20
2.78364
 30
0.0
 11
278.845
 21
16.7831
 31
0.0
  0
LINE
  8
0
 62
     0
 10
297.895
 20
16.7831
 30
0.0
 11
311.894
 21
16.7831
 31
0.0
  0
LINE
  8
0
 62
     0
 10
311.894
 20
16.7831
 30
0.0
 11
311.894
 21
2.78364
 31
0.0
  0
LINE
  8
0
 62
     0
 10
311.894
 20
2.78364
 30
0.0
 11
297.895
 21
2.78364
 31
0.0
  0
LINE
  8
0
 62
     0
 10
297.895
 20
2.78364
 30
0.0
 11
297.895
 21
16.7831
 31
0.0
  0
LINE
  8
0
 62
     0
 10
278.845
 20
35.833
 30
0.0
 11
292.844
 21
35.833
 31
0.0
  0
LINE
  8
0
 62
     0
 10
292.844
 20
35.833
 30
0.0
 11
292.844
 21
21.8336
 31
0.0
  0
LINE
  8
0
 62
     0
 10
292.844
 20
21.8336
 30
0.0
 11
278.845
 21
21.8336
 31
0.0
  0
LINE
  8
0
 62
     0
 10
278.845
 20
21.8336
 30
0.0
 11
278.845
 21
35.833
 31
0.0
  0
LINE
  8
0
 62
     0
 10
7.38216
 20
40.5955
 30
0.0
 11
21.3817
 21
40.5955
 31
0.0
  0
LINE
  8
0
 62
     0
 10
21.3817
 20
40.5955
 30
0.0
 11
21.3817
 21
26.5961
 31
0.0
  0
LINE
  8
0
 62
     0
 10
21.3817
 20
26.5961
 30
0.0
 11
7.38216
 21
26.5961
 31
0.0
  0
LINE
  8
0
 62
     0
 10
7.38216
 20
26.5961
 30
0.0
 11
7.38216
 21
40.5955
 31
0.0
  0
LINE
  8
0
 62
     0
 10
45.4822
 20
40.5955
 30
0.0
 11
59.4815
 21
40.5955
 31
0.0
  0
LINE
  8
0
 62
     0
 10
59.4815
 20
40.5955
 30
0.0
 11
59.4815
 21
26.5961
 31
0.0
  0
LINE
  8
0
 62
     0
 10
59.4815
 20
26.5961
 30
0.0
 11
45.4822
 21
26.5961
 31
0.0
  0
LINE
  8
0
 62
     0
 10
45.4822
 20
26.5961
 30
0.0
 11
45.4822
 21
40.5955
 31
0.0
  0
LINE
  8
0
 62
     0
 10
64.5322
 20
40.5955
 30
0.0
 11
78.5315
 21
40.5955
 31
0.0
  0
LINE
  8
0
 62
     0
 10
78.5315
 20
40.5955
 30
0.0
 11
78.5315
 21
26.5961
 31
0.0
  0
LINE
  8
0
 62
     0
 10
78.5315
 20
26.5961
 30
0.0
 11
64.5322
 21
26.5961
 31
0.0
  0
LINE
  8
0
 62
     0
 10
64.5322
 20
26.5961
 30
0.0
 11
64.5322
 21
40.5955
 31
0.0
  0
LINE
  8
0
 62
     0
 10
83.5822
 20
40.5955
 30
0.0
 11
97.5815
 21
40.5955
 31
0.0
  0
LINE
  8
0
 62
     0
 10
97.5815
 20
40.5955
 30
0.0
 11
97.5815
 21
26.5961
 31
0.0
  0
LINE
  8
0
 62
     0
 10
97.5815
 20
26.5961
 30
0.0
 11
83.5822
 21
26.5961
 31
0.0
  0
LINE
  8
0
 62
     0
 10
83.5822
 20
26.5961
 30
0.0
 11
83.5822
 21
40.5955
 31
0.0
  0
LINE
  8
0
 62
     0
 10
102.632
 20
40.5955
 30
0.0
 11
116.632
 21
40.5955
 31
0.0
  0
LINE
  8
0
 62
     0
 10
116.632
 20
40.5955
 30
0.0
 11
116.632
 21
26.5961
 31
0.0
  0
LINE
  8
0
 62
     0
 10
116.632
 20
26.5961
 30
0.0
 11
102.632
 21
26.5961
 31
0.0
  0
LINE
  8
0
 62
     0
 10
102.632
 20
26.5961
 30
0.0
 11
102.632
 21
40.5955
 31
0.0
  0
LINE
  8
0
 62
     0
 10
121.682
 20
40.5955
 30
0.0
 11
135.682
 21
40.5955
 31
0.0
  0
LINE
  8
0
 62
     0
 10
135.682
 20
40.5955
 30
0.0
 11
135.682
 21
26.5961
 31
0.0
  0
LINE
  8
0
 62
     0
 10
135.682
 20
26.5961
 30
0.0
 11
121.682
 21
26.5961
 31
0.0
  0
LINE
  8
0
 62
     0
 10
121.682
 20
26.5961
 30
0.0
 11
121.682
 21
40.5955
 31
0.0
  0
LINE
  8
0
 62
     0
 10
140.732
 20
40.5955
 30
0.0
 11
154.732
 21
40.5955
 31
0.0
  0
LINE
  8
0
 62
     0
 10
154.732
 20
40.5955
 30
0.0
 11
154.732
 21
26.5961
 31
0.0
  0
LINE
  8
0
 62
     0
 10
154.732
 20
26.5961
 30
0.0
 11
140.732
 21
26.5961
 31
0.0
  0
LINE
  8
0
 62
     0
 10
140.732
 20
26.5961
 30
0.0
 11
140.732
 21
40.5955
 31
0.0
  0
LINE
  8
0
 62
     0
 10
159.782
 20
40.5955
 30
0.0
 11
173.782
 21
40.5955
 31
0.0
  0
LINE
  8
0
 62
     0
 10
173.782
 20
40.5955
 30
0.0
 11
173.782
 21
26.5961
 31
0.0
  0
LINE
  8
0
 62
     0
 10
173.782
 20
26.5961
 30
0.0
 11
159.782
 21
26.5961
 31
0.0
  0
LINE
  8
0
 62
     0
 10
159.782
 20
26.5961
 30
0.0
 11
159.782
 21
40.5955
 31
0.0
  0
LINE
  8
0
 62
     0
 10
178.832
 20
40.5955
 30
0.0
 11
192.832
 21
40.5955
 31
0.0
  0
LINE
  8
0
 62
     0
 10
192.832
 20
40.5955
 30
0.0
 11
192.832
 21
26.5961
 31
0.0
  0
LINE
  8
0
 62
     0
 10
192.832
 20
26.5961
 30
0.0
 11
178.832
 21
26.5961
 31
0.0
  0
LINE
  8
0
 62
     0
 10
178.832
 20
26.5961
 30
0.0
 11
178.832
 21
40.5955
 31
0.0
  0
LINE
  8
0
 62
     0
 10
197.882
 20
40.5955
 30
0.0
 11
211.882
 21
40.5955
 31
0.0
  0
LINE
  8
0
 62
     0
 10
211.882
 20
40.5955
 30
0.0
 11
211.882
 21
26.5961
 31
0.0
  0
LINE
  8
0
 62
     0
 10
211.882
 20
26.5961
 30
0.0
 11
197.882
 21
26.5961
 31
0.0
  0
LINE
  8
0
 62
     0
 10
197.882
 20
26.5961
 30
0.0
 11
197.882
 21
40.5955
 31
0.0
  0
LINE
  8
0
 62
     0
 10
216.932
 20
40.5955
 30
0.0
 11
230.932
 21
40.5955
 31
0.0
  0
LINE
  8
0
 62
     0
 10
230.932
 20
40.5955
 30
0.0
 11
230.932
 21
26.5961
 31
0.0
  0
LINE
  8
0
 62
     0
 10
230.932
 20
26.5961
 30
0.0
 11
216.932
 21
26.5961
 31
0.0
  0
LINE
  8
0
 62
     0
 10
216.932
 20
26.5961
 30
0.0
 11
216.932
 21
40.5955
 31
0.0
  0
LINE
  8
0
 62
     0
 10
235.982
 20
40.5955
 30
0.0
 11
249.982
 21
40.5955
 31
0.0
  0
LINE
  8
0
 62
     0
 10
249.982
 20
40.5955
 30
0.0
 11
249.982
 21
26.5961
 31
0.0
  0
LINE
  8
0
 62
     0
 10
249.982
 20
26.5961
 30
0.0
 11
235.982
 21
26.5961
 31
0.0
  0
LINE
  8
0
 62
     0
 10
235.982
 20
26.5961
 30
0.0
 11
235.982
 21
40.5955
 31
0.0
  0
LINE
  8
0
 62
     0
 10
255.032
 20
40.5955
 30
0.0
 11
269.032
 21
40.5955
 31
0.0
  0
LINE
  8
0
 62
     0
 10
269.032
 20
40.5955
 30
0.0
 11
269.032
 21
26.5961
 31
0.0
  0
LINE
  8
0
 62
     0
 10
269.032
 20
26.5961
 30
0.0
 11
255.032
 21
26.5961
 31
0.0
  0
LINE
  8
0
 62
     0
 10
255.032
 20
26.5961
 30
0.0
 11
255.032
 21
40.5955
 31
0.0
  0
LINE
  8
0
 62
     0
 10
12.1447
 20
59.6456
 30
0.0
 11
12.1447
 21
54.9465
 31
0.0
  0
LINE
  8
0
 62
     0
 10
12.1447
 20
54.9465
 30
0.0
 11
10.6192
 21
54.9465
 31
0.0
  0
LINE
  8
0
 62
     0
 10
10.6192
 20
54.9465
 30
0.0
 11
10.6192
 21
58.1766
 31
0.0
  0
LINE
  8
0
 62
     0
 10
10.6192
 20
58.1766
 30
0.0
 11
3.86955
 21
58.1766
 31
0.0
  0
LINE
  8
0
 62
     0
 10
3.86955
 20
58.1766
 30
0.0
 11
3.86955
 21
54.9465
 31
0.0
  0
LINE
  8
0
 62
     0
 10
3.86955
 20
54.9465
 30
0.0
 11
3.04409
 21
54.9465
 31
0.0
  0
LINE
  8
0
 62
     0
 10
3.04409
 20
54.9465
 30
0.0
 11
3.04409
 21
52.1462
 31
0.0
  0
LINE
  8
0
 62
     0
 10
3.04409
 20
52.1462
 30
0.0
 11
3.86955
 21
52.1462
 31
0.0
  0
LINE
  8
0
 62
     0
 10
3.86955
 20
52.1462
 30
0.0
 11
3.86955
 21
45.8763
 31
0.0
  0
LINE
  8
0
 62
     0
 10
3.86955
 20
45.8763
 30
0.0
 11
5.59484
 21
45.8763
 31
0.0
  0
LINE
  8
0
 62
     0
 10
5.59484
 20
45.8763
 30
0.0
 11
5.59484
 21
44.6761
 31
0.0
  0
LINE
  8
0
 62
     0
 10
5.59484
 20
44.6761
 30
0.0
 11
8.89385
 21
44.6761
 31
0.0
  0
LINE
  8
0
 62
     0
 10
8.89385
 20
44.6761
 30
0.0
 11
8.89385
 21
45.8763
 31
0.0
  0
LINE
  8
0
 62
     0
 10
8.89385
 20
45.8763
 30
0.0
 11
10.6192
 21
45.8763
 31
0.0
  0
LINE
  8
0
 62
     0
 10
10.6192
 20
45.8763
 30
0.0
 11
10.6192
 21
50.3467
 31
0.0
  0
LINE
  8
0
 62
     0
 10
10.6192
 20
50.3467
 30
0.0
 11
12.1447
 21
50.3467
 31
0.0
  0
LINE
  8
0
 62
     0
 10
12.1447
 20
50.3467
 30
0.0
 11
12.1447
 21
45.6463
 31
0.0
  0
LINE
  8
0
 62
     0
 10
12.1447
 20
45.6463
 30
0.0
 11
26.1441
 21
45.6463
 31
0.0
  0
LINE
  8
0
 62
     0
 10
26.1441
 20
45.6463
 30
0.0
 11
26.1441
 21
50.3467
 31
0.0
  0
LINE
  8
0
 62
     0
 10
26.1441
 20
50.3467
 30
0.0
 11
27.6696
 21
50.3467
 31
0.0
  0
LINE
  8
0
 62
     0
 10
27.6696
 20
50.3467
 30
0.0
 11
27.6696
 21
45.8763
 31
0.0
  0
LINE
  8
0
 62
     0
 10
27.6696
 20
45.8763
 30
0.0
 11
29.3949
 21
45.8763
 31
0.0
  0
LINE
  8
0
 62
     0
 10
29.3949
 20
45.8763
 30
0.0
 11
29.3949
 21
44.6761
 31
0.0
  0
LINE
  8
0
 62
     0
 10
29.3949
 20
44.6761
 30
0.0
 11
32.694
 21
44.6761
 31
0.0
  0
LINE
  8
0
 62
     0
 10
32.694
 20
44.6761
 30
0.0
 11
32.694
 21
45.8763
 31
0.0
  0
LINE
  8
0
 62
     0
 10
32.694
 20
45.8763
 30
0.0
 11
34.4193
 21
45.8763
 31
0.0
  0
LINE
  8
0
 62
     0
 10
34.4193
 20
45.8763
 30
0.0
 11
34.4193
 21
52.1462
 31
0.0
  0
LINE
  8
0
 62
     0
 10
34.4193
 20
52.1462
 30
0.0
 11
35.2447
 21
52.1462
 31
0.0
  0
LINE
  8
0
 62
     0
 10
35.2447
 20
52.1462
 30
0.0
 11
35.2447
 21
54.9465
 31
0.0
  0
LINE
  8
0
 62
     0
 10
35.2447
 20
54.9465
 30
0.0
 11
34.4193
 21
54.9465
 31
0.0
  0
LINE
  8
0
 62
     0
 10
34.4193
 20
54.9465
 30
0.0
 11
34.4193
 21
58.1766
 31
0.0
  0
LINE
  8
0
 62
     0
 10
34.4193
 20
58.1766
 30
0.0
 11
27.6696
 21
58.1766
 31
0.0
  0
LINE
  8
0
 62
     0
 10
27.6696
 20
58.1766
 30
0.0
 11
27.6696
 21
54.9465
 31
0.0
  0
LINE
  8
0
 62
     0
 10
27.6696
 20
54.9465
 30
0.0
 11
26.1441
 21
54.9465
 31
0.0
  0
LINE
  8
0
 62
     0
 10
26.1441
 20
54.9465
 30
0.0
 11
26.1441
 21
59.6456
 31
0.0
  0
LINE
  8
0
 62
     0
 10
26.1441
 20
59.6456
 30
0.0
 11
12.1447
 21
59.6456
 31
0.0
  0
LINE
  8
0
 62
     0
 10
288.37
 20
59.6456
 30
0.0
 11
288.37
 21
54.9465
 31
0.0
  0
LINE
  8
0
 62
     0
 10
288.37
 20
54.9465
 30
0.0
 11
286.844
 21
54.9465
 31
0.0
  0
LINE
  8
0
 62
     0
 10
286.844
 20
54.9465
 30
0.0
 11
286.844
 21
58.1766
 31
0.0
  0
LINE
  8
0
 62
     0
 10
286.844
 20
58.1766
 30
0.0
 11
280.095
 21
58.1766
 31
0.0
  0
LINE
  8
0
 62
     0
 10
280.095
 20
58.1766
 30
0.0
 11
280.095
 21
54.9465
 31
0.0
  0
LINE
  8
0
 62
     0
 10
280.095
 20
54.9465
 30
0.0
 11
279.269
 21
54.9465
 31
0.0
  0
LINE
  8
0
 62
     0
 10
279.269
 20
54.9465
 30
0.0
 11
279.269
 21
52.1462
 31
0.0
  0
LINE
  8
0
 62
     0
 10
279.269
 20
52.1462
 30
0.0
 11
280.095
 21
52.1462
 31
0.0
  0
LINE
  8
0
 62
     0
 10
280.095
 20
52.1462
 30
0.0
 11
280.095
 21
45.8763
 31
0.0
  0
LINE
  8
0
 62
     0
 10
280.095
 20
45.8763
 30
0.0
 11
281.82
 21
45.8763
 31
0.0
  0
LINE
  8
0
 62
     0
 10
281.82
 20
45.8763
 30
0.0
 11
281.82
 21
44.6761
 31
0.0
  0
LINE
  8
0
 62
     0
 10
281.82
 20
44.6761
 30
0.0
 11
285.119
 21
44.6761
 31
0.0
  0
LINE
  8
0
 62
     0
 10
285.119
 20
44.6761
 30
0.0
 11
285.119
 21
45.8763
 31
0.0
  0
LINE
  8
0
 62
     0
 10
285.119
 20
45.8763
 30
0.0
 11
286.844
 21
45.8763
 31
0.0
  0
LINE
  8
0
 62
     0
 10
286.844
 20
45.8763
 30
0.0
 11
286.844
 21
50.3467
 31
0.0
  0
LINE
  8
0
 62
     0
 10
286.844
 20
50.3467
 30
0.0
 11
288.37
 21
50.3467
 31
0.0
  0
LINE
  8
0
 62
     0
 10
288.37
 20
50.3467
 30
0.0
 11
288.37
 21
45.6463
 31
0.0
  0
LINE
  8
0
 62
     0
 10
288.37
 20
45.6463
 30
0.0
 11
302.369
 21
45.6463
 31
0.0
  0
LINE
  8
0
 62
     0
 10
302.369
 20
45.6463
 30
0.0
 11
302.369
 21
50.3467
 31
0.0
  0
LINE
  8
0
 62
     0
 10
302.369
 20
50.3467
 30
0.0
 11
303.895
 21
50.3467
 31
0.0
  0
LINE
  8
0
 62
     0
 10
303.895
 20
50.3467
 30
0.0
 11
303.895
 21
45.8763
 31
0.0
  0
LINE
  8
0
 62
     0
 10
303.895
 20
45.8763
 30
0.0
 11
305.62
 21
45.8763
 31
0.0
  0
LINE
  8
0
 62
     0
 10
305.62
 20
45.8763
 30
0.0
 11
305.62
 21
44.6761
 31
0.0
  0
LINE
  8
0
 62
     0
 10
305.62
 20
44.6761
 30
0.0
 11
308.919
 21
44.6761
 31
0.0
  0
LINE
  8
0
 62
     0
 10
308.919
 20
44.6761
 30
0.0
 11
308.919
 21
45.8763
 31
0.0
  0
LINE
  8
0
 62
     0
 10
308.919
 20
45.8763
 30
0.0
 11
310.644
 21
45.8763
 31
0.0
  0
LINE
  8
0
 62
     0
 10
310.644
 20
45.8763
 30
0.0
 11
310.644
 21
52.1462
 31
0.0
  0
LINE
  8
0
 62
     0
 10
310.644
 20
52.1462
 30
0.0
 11
311.47
 21
52.1462
 31
0.0
  0
LINE
  8
0
 62
     0
 10
311.47
 20
52.1462
 30
0.0
 11
311.47
 21
54.9465
 31
0.0
  0
LINE
  8
0
 62
     0
 10
311.47
 20
54.9465
 30
0.0
 11
310.644
 21
54.9465
 31
0.0
  0
LINE
  8
0
 62
     0
 10
310.644
 20
54.9465
 30
0.0
 11
310.644
 21
58.1766
 31
0.0
  0
LINE
  8
0
 62
     0
 10
310.644
 20
58.1766
 30
0.0
 11
303.895
 21
58.1766
 31
0.0
  0
LINE
  8
0
 62
     0
 10
303.895
 20
58.1766
 30
0.0
 11
303.895
 21
54.9465
 31
0.0
  0
LINE
  8
0
 62
     0
 10
303.895
 20
54.9465
 30
0.0
 11
302.369
 21
54.9465
 31
0.0
  0
LINE
  8
0
 62
     0
 10
302.369
 20
54.9465
 30
0.0
 11
302.369
 21
59.6456
 31
0.0
  0
LINE
  8
0
 62
     0
 10
302.369
 20
59.6456
 30
0.0
 11
288.37
 21
59.6456
 31
0.0
  0
LINE
  8
0
 62
     0
 10
45.4822
 20
59.6456
 30
0.0
 11
59.4815
 21
59.6456
 31
0.0
  0
LINE
  8
0
 62
     0
 10
59.4815
 20
59.6456
 30
0.0
 11
59.4815
 21
45.6463
 31
0.0
  0
LINE
  8
0
 62
     0
 10
59.4815
 20
45.6463
 30
0.0
 11
45.4822
 21
45.6463
 31
0.0
  0
LINE
  8
0
 62
     0
 10
45.4822
 20
45.6463
 30
0.0
 11
45.4822
 21
59.6456
 31
0.0
  0
LINE
  8
0
 62
     0
 10
64.5322
 20
59.6456
 30
0.0
 11
78.5315
 21
59.6456
 31
0.0
  0
LINE
  8
0
 62
     0
 10
78.5315
 20
59.6456
 30
0.0
 11
78.5315
 21
45.6463
 31
0.0
  0
LINE
  8
0
 62
     0
 10
78.5315
 20
45.6463
 30
0.0
 11
64.5322
 21
45.6463
 31
0.0
  0
LINE
  8
0
 62
     0
 10
64.5322
 20
45.6463
 30
0.0
 11
64.5322
 21
59.6456
 31
0.0
  0
LINE
  8
0
 62
     0
 10
83.5822
 20
59.6456
 30
0.0
 11
97.5815
 21
59.6456
 31
0.0
  0
LINE
  8
0
 62
     0
 10
97.5815
 20
59.6456
 30
0.0
 11
97.5815
 21
45.6463
 31
0.0
  0
LINE
  8
0
 62
     0
 10
97.5815
 20
45.6463
 30
0.0
 11
83.5822
 21
45.6463
 31
0.0
  0
LINE
  8
0
 62
     0
 10
83.5822
 20
45.6463
 30
0.0
 11
83.5822
 21
59.6456
 31
0.0
  0
LINE
  8
0
 62
     0
 10
102.632
 20
59.6456
 30
0.0
 11
116.632
 21
59.6456
 31
0.0
  0
LINE
  8
0
 62
     0
 10
116.632
 20
59.6456
 30
0.0
 11
116.632
 21
45.6463
 31
0.0
  0
LINE
  8
0
 62
     0
 10
116.632
 20
45.6463
 30
0.0
 11
102.632
 21
45.6463
 31
0.0
  0
LINE
  8
0
 62
     0
 10
102.632
 20
45.6463
 30
0.0
 11
102.632
 21
59.6456
 31
0.0
  0
LINE
  8
0
 62
     0
 10
121.682
 20
59.6456
 30
0.0
 11
135.682
 21
59.6456
 31
0.0
  0
LINE
  8
0
 62
     0
 10
135.682
 20
59.6456
 30
0.0
 11
135.682
 21
45.6463
 31
0.0
  0
LINE
  8
0
 62
     0
 10
135.682
 20
45.6463
 30
0.0
 11
121.682
 21
45.6463
 31
0.0
  0
LINE
  8
0
 62
     0
 10
121.682
 20
45.6463
 30
0.0
 11
121.682
 21
59.6456
 31
0.0
  0
LINE
  8
0
 62
     0
 10
140.732
 20
59.6456
 30
0.0
 11
154.732
 21
59.6456
 31
0.0
  0
LINE
  8
0
 62
     0
 10
154.732
 20
59.6456
 30
0.0
 11
154.732
 21
45.6463
 31
0.0
  0
LINE
  8
0
 62
     0
 10
154.732
 20
45.6463
 30
0.0
 11
140.732
 21
45.6463
 31
0.0
  0
LINE
  8
0
 62
     0
 10
140.732
 20
45.6463
 30
0.0
 11
140.732
 21
59.6456
 31
0.0
  0
LINE
  8
0
 62
     0
 10
159.782
 20
59.6456
 30
0.0
 11
173.782
 21
59.6456
 31
0.0
  0
LINE
  8
0
 62
     0
 10
173.782
 20
59.6456
 30
0.0
 11
173.782
 21
45.6463
 31
0.0
  0
LINE
  8
0
 62
     0
 10
173.782
 20
45.6463
 30
0.0
 11
159.782
 21
45.6463
 31
0.0
  0
LINE
  8
0
 62
     0
 10
159.782
 20
45.6463
 30
0.0
 11
159.782
 21
59.6456
 31
0.0
  0
LINE
  8
0
 62
     0
 10
178.832
 20
59.6456
 30
0.0
 11
192.832
 21
59.6456
 31
0.0
  0
LINE
  8
0
 62
     0
 10
192.832
 20
59.6456
 30
0.0
 11
192.832
 21
45.6463
 31
0.0
  0
LINE
  8
0
 62
     0
 10
192.832
 20
45.6463
 30
0.0
 11
178.832
 21
45.6463
 31
0.0
  0
LINE
  8
0
 62
     0
 10
178.832
 20
45.6463
 30
0.0
 11
178.832
 21
59.6456
 31
0.0
  0
LINE
  8
0
 62
     0
 10
197.882
 20
59.6456
 30
0.0
 11
211.882
 21
59.6456
 31
0.0
  0
LINE
  8
0
 62
     0
 10
211.882
 20
59.6456
 30
0.0
 11
211.882
 21
45.6463
 31
0.0
  0
LINE
  8
0
 62
     0
 10
211.882
 20
45.6463
 30
0.0
 11
197.882
 21
45.6463
 31
0.0
  0
LINE
  8
0
 62
     0
 10
197.882
 20
45.6463
 30
0.0
 11
197.882
 21
59.6456
 31
0.0
  0
LINE
  8
0
 62
     0
 10
216.932
 20
59.6456
 30
0.0
 11
230.932
 21
59.6456
 31
0.0
  0
LINE
  8
0
 62
     0
 10
230.932
 20
59.6456
 30
0.0
 11
230.932
 21
45.6463
 31
0.0
  0
LINE
  8
0
 62
     0
 10
230.932
 20
45.6463
 30
0.0
 11
216.932
 21
45.6463
 31
0.0
  0
LINE
  8
0
 62
     0
 10
216.932
 20
45.6463
 30
0.0
 11
216.932
 21
59.6456
 31
0.0
  0
LINE
  8
0
 62
     0
 10
235.982
 20
59.6456
 30
0.0
 11
249.982
 21
59.6456
 31
0.0
  0
LINE
  8
0
 62
     0
 10
249.982
 20
59.6456
 30
0.0
 11
249.982
 21
45.6463
 31
0.0
  0
LINE
  8
0
 62
     0
 10
249.982
 20
45.6463
 30
0.0
 11
235.982
 21
45.6463
 31
0.0
  0
LINE
  8
0
 62
     0
 10
235.982
 20
45.6463
 30
0.0
 11
235.982
 21
59.6456
 31
0.0
  0
LINE
  8
0
 62
     0
 10
255.032
 20
59.6456
 30
0.0
 11
269.032
 21
59.6456
 31
0.0
  0
LINE
  8
0
 62
     0
 10
269.032
 20
59.6456
 30
0.0
 11
269.032
 21
45.6463
 31
0.0
  0
LINE
  8
0
 62
     0
 10
269.032
 20
45.6463
 30
0.0
 11
255.032
 21
45.6463
 31
0.0
  0
LINE
  8
0
 62
     0
 10
255.032
 20
45.6463
 30
0.0
 11
255.032
 21
59.6456
 31
0.0
  0
LINE
  8
0
 62
     0
 10
12.1447
 20
78.6956
 30
0.0
 11
12.1447
 21
73.9965
 31
0.0
  0
LINE
  8
0
 62
     0
 10
12.1447
 20
73.9965
 30
0.0
 11
10.6192
 21
73.9965
 31
0.0
  0
LINE
  8
0
 62
     0
 10
10.6192
 20
73.9965
 30
0.0
 11
10.6192
 21
77.2266
 31
0.0
  0
LINE
  8
0
 62
     0
 10
10.6192
 20
77.2266
 30
0.0
 11
3.86955
 21
77.2266
 31
0.0
  0
LINE
  8
0
 62
     0
 10
3.86955
 20
77.2266
 30
0.0
 11
3.86955
 21
73.9965
 31
0.0
  0
LINE
  8
0
 62
     0
 10
3.86955
 20
73.9965
 30
0.0
 11
3.04409
 21
73.9965
 31
0.0
  0
LINE
  8
0
 62
     0
 10
3.04409
 20
73.9965
 30
0.0
 11
3.04409
 21
71.1962
 31
0.0
  0
LINE
  8
0
 62
     0
 10
3.04409
 20
71.1962
 30
0.0
 11
3.86955
 21
71.1962
 31
0.0
  0
LINE
  8
0
 62
     0
 10
3.86955
 20
71.1962
 30
0.0
 11
3.86955
 21
64.9263
 31
0.0
  0
LINE
  8
0
 62
     0
 10
3.86955
 20
64.9263
 30
0.0
 11
5.59484
 21
64.9263
 31
0.0
  0
LINE
  8
0
 62
     0
 10
5.59484
 20
64.9263
 30
0.0
 11
5.59484
 21
63.7261
 31
0.0
  0
LINE
  8
0
 62
     0
 10
5.59484
 20
63.7261
 30
0.0
 11
8.89385
 21
63.7261
 31
0.0
  0
LINE
  8
0
 62
     0
 10
8.89385
 20
63.7261
 30
0.0
 11
8.89385
 21
64.9263
 31
0.0
  0
LINE
  8
0
 62
     0
 10
8.89385
 20
64.9263
 30
0.0
 11
10.6192
 21
64.9263
 31
0.0
  0
LINE
  8
0
 62
     0
 10
10.6192
 20
64.9263
 30
0.0
 11
10.6192
 21
69.3967
 31
0.0
  0
LINE
  8
0
 62
     0
 10
10.6192
 20
69.3967
 30
0.0
 11
12.1447
 21
69.3967
 31
0.0
  0
LINE
  8
0
 62
     0
 10
12.1447
 20
69.3967
 30
0.0
 11
12.1447
 21
64.6963
 31
0.0
  0
LINE
  8
0
 62
     0
 10
12.1447
 20
64.6963
 30
0.0
 11
26.1441
 21
64.6963
 31
0.0
  0
LINE
  8
0
 62
     0
 10
26.1441
 20
64.6963
 30
0.0
 11
26.1441
 21
69.3967
 31
0.0
  0
LINE
  8
0
 62
     0
 10
26.1441
 20
69.3967
 30
0.0
 11
27.6696
 21
69.3967
 31
0.0
  0
LINE
  8
0
 62
     0
 10
27.6696
 20
69.3967
 30
0.0
 11
27.6696
 21
64.9263
 31
0.0
  0
LINE
  8
0
 62
     0
 10
27.6696
 20
64.9263
 30
0.0
 11
29.3949
 21
64.9263
 31
0.0
  0
LINE
  8
0
 62
     0
 10
29.3949
 20
64.9263
 30
0.0
 11
29.3949
 21
63.7261
 31
0.0
  0
LINE
  8
0
 62
     0
 10
29.3949
 20
63.7261
 30
0.0
 11
32.694
 21
63.7261
 31
0.0
  0
LINE
  8
0
 62
     0
 10
32.694
 20
63.7261
 30
0.0
 11
32.694
 21
64.9263
 31
0.0
  0
LINE
  8
0
 62
     0
 10
32.694
 20
64.9263
 30
0.0
 11
34.4193
 21
64.9263
 31
0.0
  0
LINE
  8
0
 62
     0
 10
34.4193
 20
64.9263
 30
0.0
 11
34.4193
 21
71.1962
 31
0.0
  0
LINE
  8
0
 62
     0
 10
34.4193
 20
71.1962
 30
0.0
 11
35.2447
 21
71.1962
 31
0.0
  0
LINE
  8
0
 62
     0
 10
35.2447
 20
71.1962
 30
0.0
 11
35.2447
 21
73.9965
 31
0.0
  0
LINE
  8
0
 62
     0
 10
35.2447
 20
73.9965
 30
0.0
 11
34.4193
 21
73.9965
 31
0.0
  0
LINE
  8
0
 62
     0
 10
34.4193
 20
73.9965
 30
0.0
 11
34.4193
 21
77.2266
 31
0.0
  0
LINE
  8
0
 62
     0
 10
34.4193
 20
77.2266
 30
0.0
 11
27.6696
 21
77.2266
 31
0.0
  0
LINE
  8
0
 62
     0
 10
27.6696
 20
77.2266
 30
0.0
 11
27.6696
 21
73.9965
 31
0.0
  0
LINE
  8
0
 62
     0
 10
27.6696
 20
73.9965
 30
0.0
 11
26.1441
 21
73.9965
 31
0.0
  0
LINE
  8
0
 62
     0
 10
26.1441
 20
73.9965
 30
0.0
 11
26.1441
 21
78.6956
 31
0.0
  0
LINE
  8
0
 62
     0
 10
26.1441
 20
78.6956
 30
0.0
 11
12.1447
 21
78.6956
 31
0.0
  0
LINE
  8
0
 62
     0
 10
288.37
 20
78.6956
 30
0.0
 11
288.37
 21
73.9965
 31
0.0
  0
LINE
  8
0
 62
     0
 10
288.37
 20
73.9965
 30
0.0
 11
286.844
 21
73.9965
 31
0.0
  0
LINE
  8
0
 62
     0
 10
286.844
 20
73.9965
 30
0.0
 11
286.844
 21
77.2266
 31
0.0
  0
LINE
  8
0
 62
     0
 10
286.844
 20
77.2266
 30
0.0
 11
280.095
 21
77.2266
 31
0.0
  0
LINE
  8
0
 62
     0
 10
280.095
 20
77.2266
 30
0.0
 11
280.095
 21
73.9965
 31
0.0
  0
LINE
  8
0
 62
     0
 10
280.095
 20
73.9965
 30
0.0
 11
279.269
 21
73.9965
 31
0.0
  0
LINE
  8
0
 62
     0
 10
279.269
 20
73.9965
 30
0.0
 11
279.269
 21
71.1962
 31
0.0
  0
LINE
  8
0
 62
     0
 10
279.269
 20
71.1962
 30
0.0
 11
280.095
 21
71.1962
 31
0.0
  0
LINE
  8
0
 62
     0
 10
280.095
 20
71.1962
 30
0.0
 11
280.095
 21
64.9263
 31
0.0
  0
LINE
  8
0
 62
     0
 10
280.095
 20
64.9263
 30
0.0
 11
281.82
 21
64.9263
 31
0.0
  0
LINE
  8
0
 62
     0
 10
281.82
 20
64.9263
 30
0.0
 11
281.82
 21
63.7261
 31
0.0
  0
LINE
  8
0
 62
     0
 10
281.82
 20
63.7261
 30
0.0
 11
285.119
 21
63.7261
 31
0.0
  0
LINE
  8
0
 62
     0
 10
285.119
 20
63.7261
 30
0.0
 11
285.119
 21
64.9263
 31
0.0
  0
LINE
  8
0
 62
     0
 10
285.119
 20
64.9263
 30
0.0
 11
286.844
 21
64.9263
 31
0.0
  0
LINE
  8
0
 62
     0
 10
286.844
 20
64.9263
 30
0.0
 11
286.844
 21
69.3967
 31
0.0
  0
LINE
  8
0
 62
     0
 10
286.844
 20
69.3967
 30
0.0
 11
288.37
 21
69.3967
 31
0.0
  0
LINE
  8
0
 62
     0
 10
288.37
 20
69.3967
 30
0.0
 11
288.37
 21
64.6963
 31
0.0
  0
LINE
  8
0
 62
     0
 10
288.37
 20
64.6963
 30
0.0
 11
302.369
 21
64.6963
 31
0.0
  0
LINE
  8
0
 62
     0
 10
302.369
 20
64.6963
 30
0.0
 11
302.369
 21
69.3967
 31
0.0
  0
LINE
  8
0
 62
     0
 10
302.369
 20
69.3967
 30
0.0
 11
303.895
 21
69.3967
 31
0.0
  0
LINE
  8
0
 62
     0
 10
303.895
 20
69.3967
 30
0.0
 11
303.895
 21
64.9263
 31
0.0
  0
LINE
  8
0
 62
     0
 10
303.895
 20
64.9263
 30
0.0
 11
305.62
 21
64.9263
 31
0.0
  0
LINE
  8
0
 62
     0
 10
305.62
 20
64.9263
 30
0.0
 11
305.62
 21
63.7261
 31
0.0
  0
LINE
  8
0
 62
     0
 10
305.62
 20
63.7261
 30
0.0
 11
308.919
 21
63.7261
 31
0.0
  0
LINE
  8
0
 62
     0
 10
308.919
 20
63.7261
 30
0.0
 11
308.919
 21
64.9263
 31
0.0
  0
LINE
  8
0
 62
     0
 10
308.919
 20
64.9263
 30
0.0
 11
310.644
 21
64.9263
 31
0.0
  0
LINE
  8
0
 62
     0
 10
310.644
 20
64.9263
 30
0.0
 11
310.644
 21
71.1962
 31
0.0
  0
LINE
  8
0
 62
     0
 10
310.644
 20
71.1962
 30
0.0
 11
311.47
 21
71.1962
 31
0.0
  0
LINE
  8
0
 62
     0
 10
311.47
 20
71.1962
 30
0.0
 11
311.47
 21
73.9965
 31
0.0
  0
LINE
  8
0
 62
     0
 10
311.47
 20
73.9965
 30
0.0
 11
310.644
 21
73.9965
 31
0.0
  0
LINE
  8
0
 62
     0
 10
310.644
 20
73.9965
 30
0.0
 11
310.644
 21
77.2266
 31
0.0
  0
LINE
  8
0
 62
     0
 10
310.644
 20
77.2266
 30
0.0
 11
303.895
 21
77.2266
 31
0.0
  0
LINE
  8
0
 62
     0
 10
303.895
 20
77.2266
 30
0.0
 11
303.895
 21
73.9965
 31
0.0
  0
LINE
  8
0
 62
     0
 10
303.895
 20
73.9965
 30
0.0
 11
302.369
 21
73.9965
 31
0.0
  0
LINE
  8
0
 62
     0
 10
302.369
 20
73.9965
 30
0.0
 11
302.369
 21
78.6956
 31
0.0
  0
LINE
  8
0
 62
     0
 10
302.369
 20
78.6956
 30
0.0
 11
288.37
 21
78.6956
 31
0.0
  0
LINE
  8
0
 62
     0
 10
45.4822
 20
78.6956
 30
0.0
 11
59.4815
 21
78.6956
 31
0.0
  0
LINE
  8
0
 62
     0
 10
59.4815
 20
78.6956
 30
0.0
 11
59.4815
 21
64.6963
 31
0.0
  0
LINE
  8
0
 62
     0
 10
59.4815
 20
64.6963
 30
0.0
 11
45.4822
 21
64.6963
 31
0.0
  0
LINE
  8
0
 62
     0
 10
45.4822
 20
64.6963
 30
0.0
 11
45.4822
 21
78.6956
 31
0.0
  0
LINE
  8
0
 62
     0
 10
64.5322
 20
78.6956
 30
0.0
 11
78.5315
 21
78.6956
 31
0.0
  0
LINE
  8
0
 62
     0
 10
78.5315
 20
78.6956
 30
0.0
 11
78.5315
 21
64.6963
 31
0.0
  0
LINE
  8
0
 62
     0
 10
78.5315
 20
64.6963
 30
0.0
 11
64.5322
 21
64.6963
 31
0.0
  0
LINE
  8
0
 62
     0
 10
64.5322
 20
64.6963
 30
0.0
 11
64.5322
 21
78.6956
 31
0.0
  0
LINE
  8
0
 62
     0
 10
83.5822
 20
78.6956
 30
0.0
 11
97.5815
 21
78.6956
 31
0.0
  0
LINE
  8
0
 62
     0
 10
97.5815
 20
78.6956
 30
0.0
 11
97.5815
 21
64.6963
 31
0.0
  0
LINE
  8
0
 62
     0
 10
97.5815
 20
64.6963
 30
0.0
 11
83.5822
 21
64.6963
 31
0.0
  0
LINE
  8
0
 62
     0
 10
83.5822
 20
64.6963
 30
0.0
 11
83.5822
 21
78.6956
 31
0.0
  0
LINE
  8
0
 62
     0
 10
102.632
 20
78.6956
 30
0.0
 11
116.632
 21
78.6956
 31
0.0
  0
LINE
  8
0
 62
     0
 10
116.632
 20
78.6956
 30
0.0
 11
116.632
 21
64.6963
 31
0.0
  0
LINE
  8
0
 62
     0
 10
116.632
 20
64.6963
 30
0.0
 11
102.632
 21
64.6963
 31
0.0
  0
LINE
  8
0
 62
     0
 10
102.632
 20
64.6963
 30
0.0
 11
102.632
 21
78.6956
 31
0.0
  0
LINE
  8
0
 62
     0
 10
121.682
 20
78.6956
 30
0.0
 11
135.682
 21
78.6956
 31
0.0
  0
LINE
  8
0
 62
     0
 10
135.682
 20
78.6956
 30
0.0
 11
135.682
 21
64.6963
 31
0.0
  0
LINE
  8
0
 62
     0
 10
135.682
 20
64.6963
 30
0.0
 11
121.682
 21
64.6963
 31
0.0
  0
LINE
  8
0
 62
     0
 10
121.682
 20
64.6963
 30
0.0
 11
121.682
 21
78.6956
 31
0.0
  0
LINE
  8
0
 62
     0
 10
140.732
 20
78.6956
 30
0.0
 11
154.732
 21
78.6956
 31
0.0
  0
LINE
  8
0
 62
     0
 10
154.732
 20
78.6956
 30
0.0
 11
154.732
 21
64.6963
 31
0.0
  0
LINE
  8
0
 62
     0
 10
154.732
 20
64.6963
 30
0.0
 11
140.732
 21
64.6963
 31
0.0
  0
LINE
  8
0
 62
     0
 10
140.732
 20
64.6963
 30
0.0
 11
140.732
 21
78.6956
 31
0.0
  0
LINE
  8
0
 62
     0
 10
159.782
 20
78.6956
 30
0.0
 11
173.782
 21
78.6956
 31
0.0
  0
LINE
  8
0
 62
     0
 10
173.782
 20
78.6956
 30
0.0
 11
173.782
 21
64.6963
 31
0.0
  0
LINE
  8
0
 62
     0
 10
173.782
 20
64.6963
 30
0.0
 11
159.782
 21
64.6963
 31
0.0
  0
LINE
  8
0
 62
     0
 10
159.782
 20
64.6963
 30
0.0
 11
159.782
 21
78.6956
 31
0.0
  0
LINE
  8
0
 62
     0
 10
178.832
 20
78.6956
 30
0.0
 11
192.832
 21
78.6956
 31
0.0
  0
LINE
  8
0
 62
     0
 10
192.832
 20
78.6956
 30
0.0
 11
192.832
 21
64.6963
 31
0.0
  0
LINE
  8
0
 62
     0
 10
192.832
 20
64.6963
 30
0.0
 11
178.832
 21
64.6963
 31
0.0
  0
LINE
  8
0
 62
     0
 10
178.832
 20
64.6963
 30
0.0
 11
178.832
 21
78.6956
 31
0.0
  0
LINE
  8
0
 62
     0
 10
197.882
 20
78.6956
 30
0.0
 11
211.882
 21
78.6956
 31
0.0
  0
LINE
  8
0
 62
     0
 10
211.882
 20
78.6956
 30
0.0
 11
211.882
 21
64.6963
 31
0.0
  0
LINE
  8
0
 62
     0
 10
211.882
 20
64.6963
 30
0.0
 11
197.882
 21
64.6963
 31
0.0
  0
LINE
  8
0
 62
     0
 10
197.882
 20
64.6963
 30
0.0
 11
197.882
 21
78.6956
 31
0.0
  0
LINE
  8
0
 62
     0
 10
216.932
 20
78.6956
 30
0.0
 11
230.932
 21
78.6956
 31
0.0
  0
LINE
  8
0
 62
     0
 10
230.932
 20
78.6956
 30
0.0
 11
230.932
 21
64.6963
 31
0.0
  0
LINE
  8
0
 62
     0
 10
230.932
 20
64.6963
 30
0.0
 11
216.932
 21
64.6963
 31
0.0
  0
LINE
  8
0
 62
     0
 10
216.932
 20
64.6963
 30
0.0
 11
216.932
 21
78.6956
 31
0.0
  0
LINE
  8
0
 62
     0
 10
235.982
 20
78.6956
 30
0.0
 11
249.982
 21
78.6956
 31
0.0
  0
LINE
  8
0
 62
     0
 10
249.982
 20
78.6956
 30
0.0
 11
249.982
 21
64.6963
 31
0.0
  0
LINE
  8
0
 62
     0
 10
249.982
 20
64.6963
 30
0.0
 11
235.982
 21
64.6963
 31
0.0
  0
LINE
  8
0
 62
     0
 10
235.982
 20
64.6963
 30
0.0
 11
235.982
 21
78.6956
 31
0.0
  0
LINE
  8
0
 62
     0
 10
255.032
 20
78.6956
 30
0.0
 11
269.032
 21
78.6956
 31
0.0
  0
LINE
  8
0
 62
     0
 10
269.032
 20
78.6956
 30
0.0
 11
269.032
 21
64.6963
 31
0.0
  0
LINE
  8
0
 62
     0
 10
269.032
 20
64.6963
 30
0.0
 11
255.032
 21
64.6963
 31
0.0
  0
LINE
  8
0
 62
     0
 10
255.032
 20
64.6963
 30
0.0
 11
255.032
 21
78.6956
 31
0.0
  0
LINE
  8
0
 62
     0
 10
12.1447
 20
97.7456
 30
0.0
 11
12.1447
 21
93.0465
 31
0.0
  0
LINE
  8
0
 62
     0
 10
12.1447
 20
93.0465
 30
0.0
 11
10.6192
 21
93.0465
 31
0.0
  0
LINE
  8
0
 62
     0
 10
10.6192
 20
93.0465
 30
0.0
 11
10.6192
 21
96.2766
 31
0.0
  0
LINE
  8
0
 62
     0
 10
10.6192
 20
96.2766
 30
0.0
 11
3.86955
 21
96.2766
 31
0.0
  0
LINE
  8
0
 62
     0
 10
3.86955
 20
96.2766
 30
0.0
 11
3.86955
 21
93.0465
 31
0.0
  0
LINE
  8
0
 62
     0
 10
3.86955
 20
93.0465
 30
0.0
 11
3.04409
 21
93.0465
 31
0.0
  0
LINE
  8
0
 62
     0
 10
3.04409
 20
93.0465
 30
0.0
 11
3.04409
 21
90.2462
 31
0.0
  0
LINE
  8
0
 62
     0
 10
3.04409
 20
90.2462
 30
0.0
 11
3.86955
 21
90.2462
 31
0.0
  0
LINE
  8
0
 62
     0
 10
3.86955
 20
90.2462
 30
0.0
 11
3.86955
 21
83.9763
 31
0.0
  0
LINE
  8
0
 62
     0
 10
3.86955
 20
83.9763
 30
0.0
 11
5.59484
 21
83.9763
 31
0.0
  0
LINE
  8
0
 62
     0
 10
5.59484
 20
83.9763
 30
0.0
 11
5.59484
 21
82.7761
 31
0.0
  0
LINE
  8
0
 62
     0
 10
5.59484
 20
82.7761
 30
0.0
 11
8.89385
 21
82.7761
 31
0.0
  0
LINE
  8
0
 62
     0
 10
8.89385
 20
82.7761
 30
0.0
 11
8.89385
 21
83.9763
 31
0.0
  0
LINE
  8
0
 62
     0
 10
8.89385
 20
83.9763
 30
0.0
 11
10.6192
 21
83.9763
 31
0.0
  0
LINE
  8
0
 62
     0
 10
10.6192
 20
83.9763
 30
0.0
 11
10.6192
 21
88.4467
 31
0.0
  0
LINE
  8
0
 62
     0
 10
10.6192
 20
88.4467
 30
0.0
 11
12.1447
 21
88.4467
 31
0.0
  0
LINE
  8
0
 62
     0
 10
12.1447
 20
88.4467
 30
0.0
 11
12.1447
 21
83.7463
 31
0.0
  0
LINE
  8
0
 62
     0
 10
12.1447
 20
83.7463
 30
0.0
 11
26.1441
 21
83.7463
 31
0.0
  0
LINE
  8
0
 62
     0
 10
26.1441
 20
83.7463
 30
0.0
 11
26.1441
 21
88.4467
 31
0.0
  0
LINE
  8
0
 62
     0
 10
26.1441
 20
88.4467
 30
0.0
 11
27.6696
 21
88.4467
 31
0.0
  0
LINE
  8
0
 62
     0
 10
27.6696
 20
88.4467
 30
0.0
 11
27.6696
 21
83.9763
 31
0.0
  0
LINE
  8
0
 62
     0
 10
27.6696
 20
83.9763
 30
0.0
 11
29.3949
 21
83.9763
 31
0.0
  0
LINE
  8
0
 62
     0
 10
29.3949
 20
83.9763
 30
0.0
 11
29.3949
 21
82.7761
 31
0.0
  0
LINE
  8
0
 62
     0
 10
29.3949
 20
82.7761
 30
0.0
 11
32.694
 21
82.7761
 31
0.0
  0
LINE
  8
0
 62
     0
 10
32.694
 20
82.7761
 30
0.0
 11
32.694
 21
83.9763
 31
0.0
  0
LINE
  8
0
 62
     0
 10
32.694
 20
83.9763
 30
0.0
 11
34.4193
 21
83.9763
 31
0.0
  0
LINE
  8
0
 62
     0
 10
34.4193
 20
83.9763
 30
0.0
 11
34.4193
 21
90.2462
 31
0.0
  0
LINE
  8
0
 62
     0
 10
34.4193
 20
90.2462
 30
0.0
 11
35.2447
 21
90.2462
 31
0.0
  0
LINE
  8
0
 62
     0
 10
35.2447
 20
90.2462
 30
0.0
 11
35.2447
 21
93.0465
 31
0.0
  0
LINE
  8
0
 62
     0
 10
35.2447
 20
93.0465
 30
0.0
 11
34.4193
 21
93.0465
 31
0.0
  0
LINE
  8
0
 62
     0
 10
34.4193
 20
93.0465
 30
0.0
 11
34.4193
 21
96.2766
 31
0.0
  0
LINE
  8
0
 62
     0
 10
34.4193
 20
96.2766
 30
0.0
 11
27.6696
 21
96.2766
 31
0.0
  0
LINE
  8
0
 62
     0
 10
27.6696
 20
96.2766
 30
0.0
 11
27.6696
 21
93.0465
 31
0.0
  0
LINE
  8
0
 62
     0
 10
27.6696
 20
93.0465
 30
0.0
 11
26.1441
 21
93.0465
 31
0.0
  0
LINE
  8
0
 62
     0
 10
26.1441
 20
93.0465
 30
0.0
 11
26.1441
 21
97.7456
 31
0.0
  0
LINE
  8
0
 62
     0
 10
26.1441
 20
97.7456
 30
0.0
 11
12.1447
 21
97.7456
 31
0.0
  0
LINE
  8
0
 62
     0
 10
45.4822
 20
97.7456
 30
0.0
 11
59.4815
 21
97.7456
 31
0.0
  0
LINE
  8
0
 62
     0
 10
59.4815
 20
97.7456
 30
0.0
 11
59.4815
 21
83.7463
 31
0.0
  0
LINE
  8
0
 62
     0
 10
59.4815
 20
83.7463
 30
0.0
 11
45.4822
 21
83.7463
 31
0.0
  0
LINE
  8
0
 62
     0
 10
45.4822
 20
83.7463
 30
0.0
 11
45.4822
 21
97.7456
 31
0.0
  0
LINE
  8
0
 62
     0
 10
64.5322
 20
97.7456
 30
0.0
 11
78.5315
 21
97.7456
 31
0.0
  0
LINE
  8
0
 62
     0
 10
78.5315
 20
97.7456
 30
0.0
 11
78.5315
 21
83.7463
 31
0.0
  0
LINE
  8
0
 62
     0
 10
78.5315
 20
83.7463
 30
0.0
 11
64.5322
 21
83.7463
 31
0.0
  0
LINE
  8
0
 62
     0
 10
64.5322
 20
83.7463
 30
0.0
 11
64.5322
 21
97.7456
 31
0.0
  0
LINE
  8
0
 62
     0
 10
83.5822
 20
97.7456
 30
0.0
 11
97.5815
 21
97.7456
 31
0.0
  0
LINE
  8
0
 62
     0
 10
97.5815
 20
97.7456
 30
0.0
 11
97.5815
 21
83.7463
 31
0.0
  0
LINE
  8
0
 62
     0
 10
97.5815
 20
83.7463
 30
0.0
 11
83.5822
 21
83.7463
 31
0.0
  0
LINE
  8
0
 62
     0
 10
83.5822
 20
83.7463
 30
0.0
 11
83.5822
 21
97.7456
 31
0.0
  0
LINE
  8
0
 62
     0
 10
102.632
 20
97.7456
 30
0.0
 11
116.632
 21
97.7456
 31
0.0
  0
LINE
  8
0
 62
     0
 10
116.632
 20
97.7456
 30
0.0
 11
116.632
 21
83.7463
 31
0.0
  0
LINE
  8
0
 62
     0
 10
116.632
 20
83.7463
 30
0.0
 11
102.632
 21
83.7463
 31
0.0
  0
LINE
  8
0
 62
     0
 10
102.632
 20
83.7463
 30
0.0
 11
102.632
 21
97.7456
 31
0.0
  0
LINE
  8
0
 62
     0
 10
121.682
 20
97.7456
 30
0.0
 11
135.682
 21
97.7456
 31
0.0
  0
LINE
  8
0
 62
     0
 10
135.682
 20
97.7456
 30
0.0
 11
135.682
 21
83.7463
 31
0.0
  0
LINE
  8
0
 62
     0
 10
135.682
 20
83.7463
 30
0.0
 11
121.682
 21
83.7463
 31
0.0
  0
LINE
  8
0
 62
     0
 10
121.682
 20
83.7463
 30
0.0
 11
121.682
 21
97.7456
 31
0.0
  0
LINE
  8
0
 62
     0
 10
140.732
 20
97.7456
 30
0.0
 11
154.732
 21
97.7456
 31
0.0
  0
LINE
  8
0
 62
     0
 10
154.732
 20
97.7456
 30
0.0
 11
154.732
 21
83.7463
 31
0.0
  0
LINE
  8
0
 62
     0
 10
154.732
 20
83.7463
 30
0.0
 11
140.732
 21
83.7463
 31
0.0
  0
LINE
  8
0
 62
     0
 10
140.732
 20
83.7463
 30
0.0
 11
140.732
 21
97.7456
 31
0.0
  0
LINE
  8
0
 62
     0
 10
159.782
 20
97.7456
 30
0.0
 11
173.782
 21
97.7456
 31
0.0
  0
LINE
  8
0
 62
     0
 10
173.782
 20
97.7456
 30
0.0
 11
173.782
 21
83.7463
 31
0.0
  0
LINE
  8
0
 62
     0
 10
173.782
 20
83.7463
 30
0.0
 11
159.782
 21
83.7463
 31
0.0
  0
LINE
  8
0
 62
     0
 10
159.782
 20
83.7463
 30
0.0
 11
159.782
 21
97.7456
 31
0.0
  0
LINE
  8
0
 62
     0
 10
178.832
 20
97.7456
 30
0.0
 11
192.832
 21
97.7456
 31
0.0
  0
LINE
  8
0
 62
     0
 10
192.832
 20
97.7456
 30
0.0
 11
192.832
 21
83.7463
 31
0.0
  0
LINE
  8
0
 62
     0
 10
192.832
 20
83.7463
 30
0.0
 11
178.832
 21
83.7463
 31
0.0
  0
LINE
  8
0
 62
     0
 10
178.832
 20
83.7463
 30
0.0
 11
178.832
 21
97.7456
 31
0.0
  0
LINE
  8
0
 62
     0
 10
197.882
 20
97.7456
 30
0.0
 11
211.882
 21
97.7456
 31
0.0
  0
LINE
  8
0
 62
     0
 10
211.882
 20
97.7456
 30
0.0
 11
211.882
 21
83.7463
 31
0.0
  0
LINE
  8
0
 62
     0
 10
211.882
 20
83.7463
 30
0.0
 11
197.882
 21
83.7463
 31
0.0
  0
LINE
  8
0
 62
     0
 10
197.882
 20
83.7463
 30
0.0
 11
197.882
 21
97.7456
 31
0.0
  0
LINE
  8
0
 62
     0
 10
216.932
 20
97.7456
 30
0.0
 11
230.932
 21
97.7456
 31
0.0
  0
LINE
  8
0
 62
     0
 10
230.932
 20
97.7456
 30
0.0
 11
230.932
 21
83.7463
 31
0.0
  0
LINE
  8
0
 62
     0
 10
230.932
 20
83.7463
 30
0.0
 11
216.932
 21
83.7463
 31
0.0
  0
LINE
  8
0
 62
     0
 10
216.932
 20
83.7463
 30
0.0
 11
216.932
 21
97.7456
 31
0.0
  0
LINE
  8
0
 62
     0
 10
235.982
 20
97.7456
 30
0.0
 11
249.982
 21
97.7456
 31
0.0
  0
LINE
  8
0
 62
     0
 10
249.982
 20
97.7456
 30
0.0
 11
249.982
 21
83.7463
 31
0.0
  0
LINE
  8
0
 62
     0
 10
249.982
 20
83.7463
 30
0.0
 11
235.982
 21
83.7463
 31
0.0
  0
LINE
  8
0
 62
     0
 10
235.982
 20
83.7463
 30
0.0
 11
235.982
 21
97.7456
 31
0.0
  0
LINE
  8
0
 62
     0
 10
255.032
 20
97.7456
 30
0.0
 11
269.032
 21
97.7456
 31
0.0
  0
LINE
  8
0
 62
     0
 10
269.032
 20
97.7456
 30
0.0
 11
269.032
 21
83.7463
 31
0.0
  0
LINE
  8
0
 62
     0
 10
269.032
 20
83.7463
 30
0.0
 11
255.032
 21
83.7463
 31
0.0
  0
LINE
  8
0
 62
     0
 10
255.032
 20
83.7463
 30
0.0
 11
255.032
 21
97.7456
 31
0.0
  0
LINE
  8
0
 62
     0
 10
288.37
 20
121.558
 30
0.0
 11
288.37
 21
116.858
 31
0.0
  0
LINE
  8
0
 62
     0
 10
288.37
 20
116.858
 30
0.0
 11
286.844
 21
116.858
 31
0.0
  0
LINE
  8
0
 62
     0
 10
286.844
 20
116.858
 30
0.0
 11
286.844
 21
120.088
 31
0.0
  0
LINE
  8
0
 62
     0
 10
286.844
 20
120.088
 30
0.0
 11
280.095
 21
120.088
 31
0.0
  0
LINE
  8
0
 62
     0
 10
280.095
 20
120.088
 30
0.0
 11
280.095
 21
116.858
 31
0.0
  0
LINE
  8
0
 62
     0
 10
280.095
 20
116.858
 30
0.0
 11
279.269
 21
116.858
 31
0.0
  0
LINE
  8
0
 62
     0
 10
279.269
 20
116.858
 30
0.0
 11
279.269
 21
114.059
 31
0.0
  0
LINE
  8
0
 62
     0
 10
279.269
 20
114.059
 30
0.0
 11
280.095
 21
114.059
 31
0.0
  0
LINE
  8
0
 62
     0
 10
280.095
 20
114.059
 30
0.0
 11
280.095
 21
107.789
 31
0.0
  0
LINE
  8
0
 62
     0
 10
280.095
 20
107.789
 30
0.0
 11
281.82
 21
107.789
 31
0.0
  0
LINE
  8
0
 62
     0
 10
281.82
 20
107.789
 30
0.0
 11
281.82
 21
106.589
 31
0.0
  0
LINE
  8
0
 62
     0
 10
281.82
 20
106.589
 30
0.0
 11
285.119
 21
106.589
 31
0.0
  0
LINE
  8
0
 62
     0
 10
285.119
 20
106.589
 30
0.0
 11
285.119
 21
107.789
 31
0.0
  0
LINE
  8
0
 62
     0
 10
285.119
 20
107.789
 30
0.0
 11
286.844
 21
107.789
 31
0.0
  0
LINE
  8
0
 62
     0
 10
286.844
 20
107.789
 30
0.0
 11
286.844
 21
112.258
 31
0.0
  0
LINE
  8
0
 62
     0
 10
286.844
 20
112.258
 30
0.0
 11
288.37
 21
112.258
 31
0.0
  0
LINE
  8
0
 62
     0
 10
288.37
 20
112.258
 30
0.0
 11
288.37
 21
107.559
 31
0.0
  0
LINE
  8
0
 62
     0
 10
288.37
 20
107.559
 30
0.0
 11
302.369
 21
107.559
 31
0.0
  0
LINE
  8
0
 62
     0
 10
302.369
 20
107.559
 30
0.0
 11
302.369
 21
112.258
 31
0.0
  0
LINE
  8
0
 62
     0
 10
302.369
 20
112.258
 30
0.0
 11
303.895
 21
112.258
 31
0.0
  0
LINE
  8
0
 62
     0
 10
303.895
 20
112.258
 30
0.0
 11
303.895
 21
107.789
 31
0.0
  0
LINE
  8
0
 62
     0
 10
303.895
 20
107.789
 30
0.0
 11
305.62
 21
107.789
 31
0.0
  0
LINE
  8
0
 62
     0
 10
305.62
 20
107.789
 30
0.0
 11
305.62
 21
106.589
 31
0.0
  0
LINE
  8
0
 62
     0
 10
305.62
 20
106.589
 30
0.0
 11
308.919
 21
106.589
 31
0.0
  0
LINE
  8
0
 62
     0
 10
308.919
 20
106.589
 30
0.0
 11
308.919
 21
107.789
 31
0.0
  0
LINE
  8
0
 62
     0
 10
308.919
 20
107.789
 30
0.0
 11
310.644
 21
107.789
 31
0.0
  0
LINE
  8
0
 62
     0
 10
310.644
 20
107.789
 30
0.0
 11
310.644
 21
114.059
 31
0.0
  0
LINE
  8
0
 62
     0
 10
310.644
 20
114.059
 30
0.0
 11
311.47
 21
114.059
 31
0.0
  0
LINE
  8
0
 62
     0
 10
311.47
 20
114.059
 30
0.0
 11
311.47
 21
116.858
 31
0.0
  0
LINE
  8
0
 62
     0
 10
311.47
 20
116.858
 30
0.0
 11
310.644
 21
116.858
 31
0.0
  0
LINE
  8
0
 62
     0
 10
310.644
 20
116.858
 30
0.0
 11
310.644
 21
120.088
 31
0.0
  0
LINE
  8
0
 62
     0
 10
310.644
 20
120.088
 30
0.0
 11
303.895
 21
120.088
 31
0.0
  0
LINE
  8
0
 62
     0
 10
303.895
 20
120.088
 30
0.0
 11
303.895
 21
116.858
 31
0.0
  0
LINE
  8
0
 62
     0
 10
303.895
 20
116.858
 30
0.0
 11
302.369
 21
116.858
 31
0.0
  0
LINE
  8
0
 62
     0
 10
302.369
 20
116.858
 30
0.0
 11
302.369
 21
121.558
 31
0.0
  0
LINE
  8
0
 62
     0
 10
302.369
 20
121.558
 30
0.0
 11
288.37
 21
121.558
 31
0.0
  0
LINE
  8
0
 62
     0
 10
2.61965
 20
121.558
 30
0.0
 11
16.6192
 21
121.558
 31
0.0
  0
LINE
  8
0
 62
     0
 10
16.6192
 20
121.558
 30
0.0
 11
16.6192
 21
107.559
 31
0.0
  0
LINE
  8
0
 62
     0
 10
16.6192
 20
107.559
 30
0.0
 11
2.61965
 21
107.559
 31
0.0
  0
LINE
  8
0
 62
     0
 10
2.61965
 20
107.559
 30
0.0
 11
2.61965
 21
121.558
 31
0.0
  0
LINE
  8
0
 62
     0
 10
26.4322
 20
121.558
 30
0.0
 11
40.4315
 21
121.558
 31
0.0
  0
LINE
  8
0
 62
     0
 10
40.4315
 20
121.558
 30
0.0
 11
40.4315
 21
107.559
 31
0.0
  0
LINE
  8
0
 62
     0
 10
40.4315
 20
107.559
 30
0.0
 11
26.4322
 21
107.559
 31
0.0
  0
LINE
  8
0
 62
     0
 10
26.4322
 20
107.559
 30
0.0
 11
26.4322
 21
121.558
 31
0.0
  0
LINE
  8
0
 62
     0
 10
45.4822
 20
121.558
 30
0.0
 11
59.4815
 21
121.558
 31
0.0
  0
LINE
  8
0
 62
     0
 10
59.4815
 20
121.558
 30
0.0
 11
59.4815
 21
107.559
 31
0.0
  0
LINE
  8
0
 62
     0
 10
59.4815
 20
107.559
 30
0.0
 11
45.4822
 21
107.559
 31
0.0
  0
LINE
  8
0
 62
     0
 10
45.4822
 20
107.559
 30
0.0
 11
45.4822
 21
121.558
 31
0.0
  0
LINE
  8
0
 62
     0
 10
64.5322
 20
121.558
 30
0.0
 11
78.5315
 21
121.558
 31
0.0
  0
LINE
  8
0
 62
     0
 10
78.5315
 20
121.558
 30
0.0
 11
78.5315
 21
107.559
 31
0.0
  0
LINE
  8
0
 62
     0
 10
78.5315
 20
107.559
 30
0.0
 11
64.5322
 21
107.559
 31
0.0
  0
LINE
  8
0
 62
     0
 10
64.5322
 20
107.559
 30
0.0
 11
64.5322
 21
121.558
 31
0.0
  0
LINE
  8
0
 62
     0
 10
83.5822
 20
121.558
 30
0.0
 11
97.5815
 21
121.558
 31
0.0
  0
LINE
  8
0
 62
     0
 10
97.5815
 20
121.558
 30
0.0
 11
97.5815
 21
107.559
 31
0.0
  0
LINE
  8
0
 62
     0
 10
97.5815
 20
107.559
 30
0.0
 11
83.5822
 21
107.559
 31
0.0
  0
LINE
  8
0
 62
     0
 10
83.5822
 20
107.559
 30
0.0
 11
83.5822
 21
121.558
 31
0.0
  0
LINE
  8
0
 62
     0
 10
102.632
 20
121.558
 30
0.0
 11
116.632
 21
121.558
 31
0.0
  0
LINE
  8
0
 62
     0
 10
116.632
 20
121.558
 30
0.0
 11
116.632
 21
107.559
 31
0.0
  0
LINE
  8
0
 62
     0
 10
116.632
 20
107.559
 30
0.0
 11
102.632
 21
107.559
 31
0.0
  0
LINE
  8
0
 62
     0
 10
102.632
 20
107.559
 30
0.0
 11
102.632
 21
121.558
 31
0.0
  0
LINE
  8
0
 62
     0
 10
121.682
 20
121.558
 30
0.0
 11
135.682
 21
121.558
 31
0.0
  0
LINE
  8
0
 62
     0
 10
135.682
 20
121.558
 30
0.0
 11
135.682
 21
107.559
 31
0.0
  0
LINE
  8
0
 62
     0
 10
135.682
 20
107.559
 30
0.0
 11
121.682
 21
107.559
 31
0.0
  0
LINE
  8
0
 62
     0
 10
121.682
 20
107.559
 30
0.0
 11
121.682
 21
121.558
 31
0.0
  0
LINE
  8
0
 62
     0
 10
140.732
 20
121.558
 30
0.0
 11
154.732
 21
121.558
 31
0.0
  0
LINE
  8
0
 62
     0
 10
154.732
 20
121.558
 30
0.0
 11
154.732
 21
107.559
 31
0.0
  0
LINE
  8
0
 62
     0
 10
154.732
 20
107.559
 30
0.0
 11
140.732
 21
107.559
 31
0.0
  0
LINE
  8
0
 62
     0
 10
140.732
 20
107.559
 30
0.0
 11
140.732
 21
121.558
 31
0.0
  0
LINE
  8
0
 62
     0
 10
159.782
 20
121.558
 30
0.0
 11
173.782
 21
121.558
 31
0.0
  0
LINE
  8
0
 62
     0
 10
173.782
 20
121.558
 30
0.0
 11
173.782
 21
107.559
 31
0.0
  0
LINE
  8
0
 62
     0
 10
173.782
 20
107.559
 30
0.0
 11
159.782
 21
107.559
 31
0.0
  0
LINE
  8
0
 62
     0
 10
159.782
 20
107.559
 30
0.0
 11
159.782
 21
121.558
 31
0.0
  0
LINE
  8
0
 62
     0
 10
178.832
 20
121.558
 30
0.0
 11
192.832
 21
121.558
 31
0.0
  0
LINE
  8
0
 62
     0
 10
192.832
 20
121.558
 30
0.0
 11
192.832
 21
107.559
 31
0.0
  0
LINE
  8
0
 62
     0
 10
192.832
 20
107.559
 30
0.0
 11
178.832
 21
107.559
 31
0.0
  0
LINE
  8
0
 62
     0
 10
178.832
 20
107.559
 30
0.0
 11
178.832
 21
121.558
 31
0.0
  0
LINE
  8
0
 62
     0
 10
197.882
 20
121.558
 30
0.0
 11
211.882
 21
121.558
 31
0.0
  0
LINE
  8
0
 62
     0
 10
211.882
 20
121.558
 30
0.0
 11
211.882
 21
107.559
 31
0.0
  0
LINE
  8
0
 62
     0
 10
211.882
 20
107.559
 30
0.0
 11
197.882
 21
107.559
 31
0.0
  0
LINE
  8
0
 62
     0
 10
197.882
 20
107.559
 30
0.0
 11
197.882
 21
121.558
 31
0.0
  0
LINE
  8
0
 62
     0
 10
216.932
 20
121.558
 30
0.0
 11
230.932
 21
121.558
 31
0.0
  0
LINE
  8
0
 62
     0
 10
230.932
 20
121.558
 30
0.0
 11
230.932
 21
107.559
 31
0.0
  0
LINE
  8
0
 62
     0
 10
230.932
 20
107.559
 30
0.0
 11
216.932
 21
107.559
 31
0.0
  0
LINE
  8
0
 62
     0
 10
216.932
 20
107.559
 30
0.0
 11
216.932
 21
121.558
 31
0.0
  0
LINE
  8
0
 62
     0
 10
235.982
 20
121.558
 30
0.0
 11
249.982
 21
121.558
 31
0.0
  0
LINE
  8
0
 62
     0
 10
249.982
 20
121.558
 30
0.0
 11
249.982
 21
107.559
 31
0.0
  0
LINE
  8
0
 62
     0
 10
249.982
 20
107.559
 30
0.0
 11
235.982
 21
107.559
 31
0.0
  0
LINE
  8
0
 62
     0
 10
235.982
 20
107.559
 30
0.0
 11
235.982
 21
121.558
 31
0.0
  0
LINE
  8
0
 62
     0
 10
255.032
 20
121.558
 30
0.0
 11
269.032
 21
121.558
 31
0.0
  0
LINE
  8
0
 62
     0
 10
269.032
 20
121.558
 30
0.0
 11
269.032
 21
107.559
 31
0.0
  0
LINE
  8
0
 62
     0
 10
269.032
 20
107.559
 30
0.0
 11
255.032
 21
107.559
 31
0.0
  0
LINE
  8
0
 62
     0
 10
255.032
 20
107.559
 30
0.0
 11
255.032
 21
121.558
 31
0.0
  0
ENDSEC
  0
EOF
